<svg viewBox="0 0 330 200" xmlns="http://www.w3.org/2000/svg"><g><g><g><g><g><line x1="50.17599868774414" y1="174.61999893188477" x2="45.17599868774414" y2="174.61999893188477" style="visibility: inherit;" fill="rgb(0, 0, 0)" stroke="rgb(204, 204, 204)" stroke-width="1px"></line><line x1="50.17599868774414" y1="152.79249906539917" x2="45.17599868774414" y2="152.79249906539917" style="visibility: inherit;" fill="rgb(0, 0, 0)" stroke="rgb(204, 204, 204)" stroke-width="1px"></line><line x1="50.17599868774414" y1="130.96499919891357" x2="45.17599868774414" y2="130.96499919891357" style="visibility: inherit;" fill="rgb(0, 0, 0)" stroke="rgb(204, 204, 204)" stroke-width="1px"></line><line x1="50.17599868774414" y1="109.13749933242798" x2="45.17599868774414" y2="109.13749933242798" style="visibility: inherit;" fill="rgb(0, 0, 0)" stroke="rgb(204, 204, 204)" stroke-width="1px"></line><line x1="50.17599868774414" y1="87.30999946594238" x2="45.17599868774414" y2="87.30999946594238" style="visibility: inherit;" fill="rgb(0, 0, 0)" stroke="rgb(204, 204, 204)" stroke-width="1px"></line><line x1="50.17599868774414" y1="65.48249959945679" x2="45.17599868774414" y2="65.48249959945679" style="visibility: inherit;" fill="rgb(0, 0, 0)" stroke="rgb(204, 204, 204)" stroke-width="1px"></line><line x1="50.17599868774414" y1="43.65499973297119" x2="45.17599868774414" y2="43.65499973297119" style="visibility: inherit;" fill="rgb(0, 0, 0)" stroke="rgb(204, 204, 204)" stroke-width="1px"></line><line x1="50.17599868774414" y1="21.827499866485596" x2="45.17599868774414" y2="21.827499866485596" style="visibility: inherit;" fill="rgb(0, 0, 0)" stroke="rgb(204, 204, 204)" stroke-width="1px"></line><line x1="50.17599868774414" y1="0" x2="45.17599868774414" y2="0" style="visibility: inherit;" fill="rgb(0, 0, 0)" stroke="rgb(204, 204, 204)" stroke-width="1px"></line></g><g transform="translate(40.17599868774414, 0)"><text style="text-anchor: end; visibility: hidden; font-family: Roboto, sans-serif; font-size: 12px; font-weight: 200;" x="0" y="174.61999893188477" dx="0em" dy="0.3em" fill="rgb(33, 33, 33)" stroke="none" stroke-width="1px">-100</text><text style="text-anchor: end; visibility: inherit; font-family: Roboto, sans-serif; font-size: 12px; font-weight: 200;" x="0" y="152.79249906539917" dx="0em" dy="0.3em" fill="rgb(33, 33, 33)" stroke="none" stroke-width="1px">-50</text><text style="text-anchor: end; visibility: hidden; font-family: Roboto, sans-serif; font-size: 12px; font-weight: 200;" x="0" y="130.96499919891357" dx="0em" dy="0.3em" fill="rgb(33, 33, 33)" stroke="none" stroke-width="1px">0</text><text style="text-anchor: end; visibility: inherit; font-family: Roboto, sans-serif; font-size: 12px; font-weight: 200;" x="0" y="109.13749933242798" dx="0em" dy="0.3em" fill="rgb(33, 33, 33)" stroke="none" stroke-width="1px">50</text><text style="text-anchor: end; visibility: hidden; font-family: Roboto, sans-serif; font-size: 12px; font-weight: 200;" x="0" y="87.30999946594238" dx="0em" dy="0.3em" fill="rgb(33, 33, 33)" stroke="none" stroke-width="1px">100</text><text style="text-anchor: end; visibility: inherit; font-family: Roboto, sans-serif; font-size: 12px; font-weight: 200;" x="0" y="65.48249959945679" dx="0em" dy="0.3em" fill="rgb(33, 33, 33)" stroke="none" stroke-width="1px">150</text><text style="text-anchor: end; visibility: hidden; font-family: Roboto, sans-serif; font-size: 12px; font-weight: 200;" x="0" y="43.65499973297119" dx="0em" dy="0.3em" fill="rgb(33, 33, 33)" stroke="none" stroke-width="1px">200</text><text style="text-anchor: end; visibility: inherit; font-family: Roboto, sans-serif; font-size: 12px; font-weight: 200;" x="0" y="21.827499866485596" dx="0em" dy="0.3em" fill="rgb(33, 33, 33)" stroke="none" stroke-width="1px">250</text><text style="text-anchor: end; visibility: hidden; font-family: Roboto, sans-serif; font-size: 12px; font-weight: 200;" x="0" y="0" dx="0em" dy="0.3em" fill="rgb(33, 33, 33)" stroke="none" stroke-width="1px">300</text></g><line x1="50.17599868774414" y1="0" x2="50.17599868774414" y2="174.61999893188477" fill="rgb(0, 0, 0)" stroke="rgb(204, 204, 204)" stroke-width="1px"></line></g></g><g transform="translate(50, 0)" clip-path="url(#clip_0)"><clipPath id="clip_0"><rect width="279" height="174"></rect></clipPath><g><g><g><line x1="0" y1="0" x2="0" y2="174.61999893188477" fill="rgb(0, 0, 0)" stroke="rgb(66, 66, 66)" stroke-width="1px" opacity="0.25"></line><line x1="23.31866677602132" y1="0" x2="23.31866677602132" y2="174.61999893188477" fill="rgb(0, 0, 0)" stroke="rgb(66, 66, 66)" stroke-width="1px" opacity="0.25"></line><line x1="46.63733355204264" y1="0" x2="46.63733355204264" y2="174.61999893188477" fill="rgb(0, 0, 0)" stroke="rgb(66, 66, 66)" stroke-width="1px" opacity="0.25"></line><line x1="69.95600032806396" y1="0" x2="69.95600032806396" y2="174.61999893188477" fill="rgb(0, 0, 0)" stroke="rgb(66, 66, 66)" stroke-width="1px" opacity="0.25"></line><line x1="93.27466710408528" y1="0" x2="93.27466710408528" y2="174.61999893188477" fill="rgb(0, 0, 0)" stroke="rgb(66, 66, 66)" stroke-width="1px" opacity="0.25"></line><line x1="116.59333388010661" y1="0" x2="116.59333388010661" y2="174.61999893188477" fill="rgb(0, 0, 0)" stroke="rgb(66, 66, 66)" stroke-width="1px" opacity="0.25"></line><line x1="139.91200065612793" y1="0" x2="139.91200065612793" y2="174.61999893188477" fill="rgb(0, 0, 0)" stroke="rgb(66, 66, 66)" stroke-width="1px" opacity="0.25"></line><line x1="163.23066743214926" y1="0" x2="163.23066743214926" y2="174.61999893188477" fill="rgb(0, 0, 0)" stroke="rgb(66, 66, 66)" stroke-width="1px" opacity="0.25"></line><line x1="186.54933420817056" y1="0" x2="186.54933420817056" y2="174.61999893188477" fill="rgb(0, 0, 0)" stroke="rgb(66, 66, 66)" stroke-width="1px" opacity="0.25"></line><line x1="209.8680009841919" y1="0" x2="209.8680009841919" y2="174.61999893188477" fill="rgb(0, 0, 0)" stroke="rgb(66, 66, 66)" stroke-width="1px" opacity="0.25"></line><line x1="233.18666776021323" y1="0" x2="233.18666776021323" y2="174.61999893188477" fill="rgb(0, 0, 0)" stroke="rgb(66, 66, 66)" stroke-width="1px" opacity="0.25"></line><line x1="256.5053345362345" y1="0" x2="256.5053345362345" y2="174.61999893188477" fill="rgb(0, 0, 0)" stroke="rgb(66, 66, 66)" stroke-width="1px" opacity="0.25"></line><line x1="279.82400131225586" y1="0" x2="279.82400131225586" y2="174.61999893188477" fill="rgb(0, 0, 0)" stroke="rgb(66, 66, 66)" stroke-width="1px" opacity="0.25"></line></g><g><line x1="0" y1="174.61999893188477" x2="279.82400131225586" y2="174.61999893188477" fill="rgb(0, 0, 0)" stroke="rgb(66, 66, 66)" stroke-width="1px" opacity="0.25"></line><line x1="0" y1="152.79249906539917" x2="279.82400131225586" y2="152.79249906539917" fill="rgb(0, 0, 0)" stroke="rgb(66, 66, 66)" stroke-width="1px" opacity="0.25"></line><line x1="0" y1="130.96499919891357" x2="279.82400131225586" y2="130.96499919891357" fill="rgb(0, 0, 0)" stroke="rgb(66, 66, 66)" stroke-width="1px" opacity="0.25"></line><line x1="0" y1="109.13749933242798" x2="279.82400131225586" y2="109.13749933242798" fill="rgb(0, 0, 0)" stroke="rgb(66, 66, 66)" stroke-width="1px" opacity="0.25"></line><line x1="0" y1="87.30999946594238" x2="279.82400131225586" y2="87.30999946594238" fill="rgb(0, 0, 0)" stroke="rgb(66, 66, 66)" stroke-width="1px" opacity="0.25"></line><line x1="0" y1="65.48249959945679" x2="279.82400131225586" y2="65.48249959945679" fill="rgb(0, 0, 0)" stroke="rgb(66, 66, 66)" stroke-width="1px" opacity="0.25"></line><line x1="0" y1="43.65499973297119" x2="279.82400131225586" y2="43.65499973297119" fill="rgb(0, 0, 0)" stroke="rgb(66, 66, 66)" stroke-width="1px" opacity="0.25"></line><line x1="0" y1="21.827499866485596" x2="279.82400131225586" y2="21.827499866485596" fill="rgb(0, 0, 0)" stroke="rgb(66, 66, 66)" stroke-width="1px" opacity="0.25"></line><line x1="0" y1="0" x2="279.82400131225586" y2="0" fill="rgb(0, 0, 0)" stroke="rgb(66, 66, 66)" stroke-width="1px" opacity="0.25"></line></g></g></g><g><g><line x1="0" y1="130.96499919891357" x2="279.82400131225586" y2="130.96499919891357" fill="rgb(0, 0, 0)" stroke="rgb(153, 153, 153)" stroke-width="1.5px"></line></g></g><g><g><line x1="23.31866677602132" y1="0" x2="23.31866677602132" y2="174.61999893188477" fill="rgb(0, 0, 0)" stroke="rgb(153, 153, 153)" stroke-width="1.5px"></line></g></g><g><g><g><g><g><path style="fill: none;" stroke="rgb(204, 51, 17)" stroke-width="2px" d="M25.22893195831299,131.49846329689944L27.139197140604654,130.96450807673187L29.04946232289632,130.35403408925248L30.95972750518799,129.60723074753184L32.86999268747965,128.34870808130967L34.780257869771326,126.53886678016946L36.690523052062986,123.04808693794992L38.60078823435465,118.39225505898304L40.51105341664632,108.80402512641777L42.421318598937994,99.93240092334337L44.331583781229654,89.22076827531382L46.24184896352132,79.75619788343784L48.152114145812995,70.5608189983627L50.062379328104655,61.45566034372062L51.97264451039632,54.005703744480854L53.88290969268799,47.7890087101017L55.793174874979655,43.202059331459466L57.70344005727132,40.538755444966526L59.61370523956299,38.751646683990664L61.52397042185465,36.883677501881245L63.43423560414632,35.116307150185534L65.34450078643799,33.84199903722603L67.25476596872966,32.95920589009501L69.16503115102132,32.60205832671385L71.07529633331299,32.70994589890248L72.98556151560464,32.67881240639183L74.89582669789633,32.12090568391394L76.80609188018799,31.35624633396396L78.71635706247964,30.928534973161607L80.62662224477133,31.133427290157222L82.536887427063,31.138493603553286L84.44715260935465,30.70795426537278L86.35741779164633,30.3752407920757L88.267682973938,30.176310814594842L90.17794815622965,30.34804567524858L92.08821333852133,30.550269556476305L93.99847852081298,30.304378578065492L95.90874370310465,29.880944072917313L97.81900888539633,29.690271581647732L99.72927406768798,29.72359539144435L101.63953924997965,29.94737251648181L103.54980443227133,30.039030936099742L105.46006961456298,29.783202602812942L107.37033479685465,29.610846344577357L109.28059997914633,29.532055139250758L111.19086516143798,29.421568061706363L113.10113034372966,29.281584022724473L115.01139552602132,29.541944258556008L116.92166070831298,29.845365464155154L118.83192589060467,29.728294576973592L120.74219107289632,29.56794699547234L122.65245625518799,29.375174674274277L124.56272143747967,29.230524297785262L126.47298661977132,29.1947244118512L128.38325180206297,29.158051559851497L130.29351698435465,29.156130107745142L132.20378216664633,29.284021138585118L134.114047348938,29.34433983586379L136.02431253122967,29.32150994222628L137.93457771352132,29.344134330040365L139.84484289581297,29.278605591630633L141.75510807810466,29.281547155699364L143.66537326039634,29.408513802053946L145.575638442688,29.498663709520013L147.48590362497967,29.541402927750767L149.39616880727132,29.572284845497936L151.30643398956298,29.687902672920575L153.21669917185466,29.596098385618806L155.12696435414634,29.463484491080145L157.037229536438,29.43176239643488L158.94749471872967,29.286480287270553L160.85775990102132,29.15775031096662L162.76802508331298,29.140932294297095L164.67829026560463,29.169956193528787L166.58855544789634,29.16501812872456L168.498820630188,29.106700515705505L170.40908581247965,29.13457325408914L172.31935099477133,29.33988681570451L174.22961617706298,29.415228710595805L176.13988135935463,29.334184995153382L178.05014654164634,29.319432423822835L179.960411723938,29.355807929698077L181.87067690622965,29.26448034786797L183.78094208852133,29.140010056825485L185.69120727081298,29.183021058054806L187.60147245310463,29.194508690984478L189.51173763539634,29.081962854114476" fill="none"></path></g><g><path style="fill: none;" stroke="rgb(238, 51, 119)" stroke-width="2px" d="M25.22893195831299,137.64465055151672L27.139197140604654,137.60645259328098L29.04946232289632,137.22213266112743L30.95972750518799,136.89348772577006L32.86999268747965,136.63061871572867L34.780257869771326,136.42104609208613L36.690523052062986,136.20958068193866L38.60078823435465,136.06541991076648L40.51105341664632,135.9612616710421L42.421318598937994,135.89750998968017L44.331583781229654,135.84881600527302L46.24184896352132,135.81043796230938L48.152114145812995,135.7802958255507L50.062379328104655,135.7522745846906L51.97264451039632,135.74700623895365L53.88290969268799,135.75432704709837L55.793174874979655,135.7410786336082L57.70344005727132,135.72247797512856L59.61370523956299,135.6976975871989L61.52397042185465,135.68090948662464L63.43423560414632,135.6682176017234L65.34450078643799,135.6595549911295L67.25476596872966,135.64248327202117L69.16503115102132,135.63625656454803L71.07529633331299,135.615931565257L72.98556151560464,135.60653065797362L74.89582669789633,135.60420791656796L76.80609188018799,135.61957775414476L78.71635706247964,135.61238538868307L80.62662224477133,135.59322726125032L82.536887427063,135.60355989026309L84.44715260935465,135.6722733967481L86.35741779164633,135.8139079680135L88.267682973938,135.7794486210882L90.17794815622965,135.84363834516265L92.08821333852133,135.77999947181107L93.99847852081298,135.7056698468527L95.90874370310465,135.66980310545722L97.81900888539633,135.78483582823293L99.72927406768798,136.08086149395535L101.63953924997965,136.0187236090971L103.54980443227133,135.88609844135055L105.46006961456298,135.8713072444606L107.37033479685465,135.80585575058072L109.28059997914633,135.72799371725455L111.19086516143798,135.77068195137744L113.10113034372966,135.89705073914877L115.01139552602132,136.00308116371258L116.92166070831298,135.83270859323258L118.83192589060467,135.89165936858026L120.74219107289632,136.01835605193077L122.65245625518799,136.189367450604L124.56272143747967,136.40460410252297L126.47298661977132,136.44626157013076L128.38325180206297,137.1288749307027L130.29351698435465,137.8522349066055L132.20378216664633,138.31192025314263L134.114047348938,138.71433102690273L136.02431253122967,139.54634232221744L137.93457771352132,142.28644724461188L139.84484289581297,143.9427335446839L141.75510807810466,143.65531874427646L143.66537326039634,144.0921187631984L145.575638442688,144.88905978331914L147.48590362497967,144.26537229538852L149.39616880727132,143.26584569569914L151.30643398956298,141.5682936880277L153.21669917185466,140.71984252491836L155.12696435414634,141.54748770571715L157.037229536438,144.26436812726024L158.94749471872967,145.57232293512004L160.85775990102132,144.70344421679178L162.76802508331298,143.34114707360337L164.67829026560463,142.3542126514899L166.58855544789634,141.53574456220528L168.498820630188,140.68547017632386L170.40908581247965,140.460809283016L172.31935099477133,140.7854380548137L174.22961617706298,141.17666281669074L176.13988135935463,141.1251955062255L178.05014654164634,141.06515361209864L179.960411723938,141.31340987917997L181.87067690622965,141.53046533243258L183.78094208852133,141.6556347416527L185.69120727081298,141.64290248242568L187.60147245310463,141.36687207395815L189.51173763539634,141.25294126596225L191.422002817688,141.44563982611484L193.33226799997965,141.77831162620768L195.24253318227133,141.87174578155117L197.15279836456298,141.81412848492528L199.06306354685464,141.65173653950953L200.97332872914635,141.86983957177654L202.883593911438,142.32217673989362L204.79385909372965,142.69870048795107L206.7041242760213,143.0127976896992L208.61438945831298,143.10748495674858L210.52465464060467,143.4019551461825L212.43491982289632,143.8245023835373L214.345185005188,144.10544599384124L216.25545018747965,144.45788693097074L218.1657153697713,144.9155656650975L220.075980552063,145.319391997877L221.98624573435467,146.45609105371628L223.89651091664632,147.8451468255922L225.806776098938,149.15022894313563L227.71704128122965,150.3226807313451L229.6273064635213,151.2295842628958L231.537571645813,151.6389198545594L233.44783682810467,151.4867368733066L235.35810201039632,151.08774646525166L237.268367192688,150.865290381631L239.17863237497966,150.5688965069303L241.0888975572713,150.1741820421858L242.99916273956296,149.90679499675053L244.90942792185467,149.16313194641197L246.81969310414632,148.71396520852744L248.72995828643798,148.4055249806406L250.64022346872966,148.1918235744151L252.5504886510213,147.98327702491807L254.46075383331296,147.95593653442577L256.37101901560465,147.894131333502L258.28128419789635,147.85460354362064" fill="none"></path></g><g><path style="fill: none;" stroke="rgb(255, 112, 67)" stroke-width="2px" d="M25.22893195831299,131.32951843731655L27.139197140604654,130.91506878529296L29.04946232289632,130.57905335504483L30.95972750518799,130.1332912114221L32.86999268747965,129.44884985583482L34.780257869771326,128.05935893375351L36.690523052062986,125.70899569663209L38.60078823435465,122.22955050254649L40.51105341664632,114.02338792949917L42.421318598937994,105.02212226587547L44.331583781229654,94.4941625629487L46.24184896352132,82.9130079194027L48.152114145812995,73.83752678204621L50.062379328104655,67.62076493943145L51.97264451039632,62.78970838485825L53.88290969268799,58.40137656721333L55.793174874979655,54.09969643536856L57.70344005727132,50.35327378288508L59.61370523956299,47.03133461203874L61.52397042185465,44.5379951185314L63.43423560414632,43.296127758271005L65.34450078643799,42.57704386240448L67.25476596872966,42.18174633547966L69.16503115102132,42.03362547949468L71.07529633331299,41.53038145220063L72.98556151560464,41.17377918043584L74.89582669789633,40.6411369153683L76.80609188018799,40.316835755508805L78.71635706247964,40.01922998919754L80.62662224477133,39.747420096391544L82.536887427063,39.64737070555455L84.44715260935465,39.31179018771908" fill="none"></path></g></g></g></g><g opacity="0.2"><g><g><g><path style="fill: none;" stroke="rgb(204, 51, 17)" stroke-width="2px" d="M25.22893195831299,131.49846329689944L27.139197140604654,130.64413494463133L29.04946232289632,129.76797906127223L30.95972750518799,128.72899001766834L32.86999268747965,126.70558088829002L34.780257869771326,124.03520471782416L36.690523052062986,118.05621591109848L38.60078823435465,111.60400748346329L40.51105341664632,94.66324839366608L42.421318598937994,86.75907291634903L44.331583781229654,73.25047302301101L46.24184896352132,65.61084806974104L48.152114145812995,56.79777517824477L50.062379328104655,47.81576031543081L51.97264451039632,42.83952598994293L53.88290969268799,38.46835065352135L55.793174874979655,36.323576306746695L57.70344005727132,36.544475827795395L59.61370523956299,36.07125579055937L61.52397042185465,34.081894468499364L63.43423560414632,32.465348549432385L65.34450078643799,31.93057879943808L67.25476596872966,31.63503359860916L69.16503115102132,32.06634121239549L71.07529633331299,32.87177649036676L72.98556151560464,32.63211230039597L74.89582669789633,31.284047027727503L76.80609188018799,30.2092584829712L78.71635706247964,30.286968325940695L80.62662224477133,31.44076565240975L82.536887427063,31.146093071967332L84.44715260935465,30.062145343764858L86.35741779164633,29.876170621849447L88.267682973938,29.877915862622462L90.17794815622965,30.605647958848575L92.08821333852133,30.853605373103345L93.99847852081298,29.93554211425362L95.90874370310465,29.24579231912576L97.81900888539633,29.404262845805345L99.72927406768798,29.773581106027986L101.63953924997965,30.28303820358925L103.54980443227133,30.17651856541634L105.46006961456298,29.399460103067394L107.37033479685465,29.352311957298664L109.28059997914633,29.413868331281268L111.19086516143798,29.255837445407078L113.10113034372966,29.0716079642647L115.01139552602132,29.932484612288683L116.92166070831298,30.30049727254373L118.83192589060467,29.552688246203616L120.74219107289632,29.32742562322236L122.65245625518799,29.086016192478574L124.56272143747967,29.013548733052453L126.47298661977132,29.141024582950195L128.38325180206297,29.103042281851966L130.29351698435465,29.153247929585635L132.20378216664633,29.47585768484496L134.114047348938,29.434817881781775L136.02431253122967,29.287265101770032L137.93457771352132,29.37807091176145L139.84484289581297,29.18031248401604L141.75510807810466,29.285959501802417L143.66537326039634,29.59896377158584L145.575638442688,29.633888570719133L147.48590362497967,29.605511755096806L149.39616880727132,29.618607722118753L151.30643398956298,29.861329414054488L153.21669917185466,29.45839195466615L155.12696435414634,29.264563649272162L157.037229536438,29.384179254467018L158.94749471872967,29.068557123524073L160.85775990102132,28.964655346510707L162.76802508331298,29.115705269292807L164.67829026560463,29.213492042376316L166.58855544789634,29.15761103151817L168.498820630188,29.01922409617691L170.40908581247965,29.176382361664572L172.31935099477133,29.647857158127586L174.22961617706298,29.528241552932734L176.13988135935463,29.21261942198981L178.05014654164634,29.297303566827022L179.960411723938,29.41037118851091L181.87067690622965,29.127488975122827L183.78094208852133,28.953304620261772L185.69120727081298,29.24753755989877L187.60147245310463,29.21174014037897L189.51173763539634,28.913144098809422" fill="none"></path></g><g><path style="fill: none;" stroke="rgb(238, 51, 119)" stroke-width="2px" d="M25.22893195831299,137.64465055151672L27.139197140604654,137.58353381833953L29.04946232289632,136.85318552626L30.95972750518799,136.50700128178977L32.86999268747965,136.28741693621865L34.780257869771326,136.131131707444L36.690523052062986,135.9071817619812L38.60078823435465,135.85523212245408L40.51105341664632,135.80764849914513L42.421318598937994,135.8028461727337L44.331583781229654,135.77621667951698L46.24184896352132,135.7530797494789L48.152114145812995,135.735181039719L50.062379328104655,135.71029761992835L51.97264451039632,135.73910991309089L53.88290969268799,135.76530309611434L55.793174874979655,135.7212116196575L57.70344005727132,135.69458171011428L59.61370523956299,135.66053078034707L61.52397042185465,135.65572887026215L63.43423560414632,135.64918047042465L65.34450078643799,135.64656136028557L67.25476596872966,135.61687603041L69.16503115102132,135.62691657709962L71.07529633331299,135.58544421078187L72.98556151560464,135.59242933713912L74.89582669789633,135.60072381040268L76.80609188018799,135.64263248691367L78.71635706247964,135.6015968471157L80.62662224477133,135.5644900806896L82.536887427063,135.61905883035584L84.44715260935465,135.77534364280396L86.35741779164633,136.02635980800324L88.267682973938,135.7277596031685L90.17794815622965,135.9399229285156L92.08821333852133,135.68454116342468L93.99847852081298,135.59417541056519L95.90874370310465,135.61600299369698L97.81900888539633,135.95738491175575L99.72927406768798,136.5248999915497L101.63953924997965,135.92551678193436L103.54980443227133,135.68716068989028L105.46006961456298,135.84912044913636L107.37033479685465,135.70767850978928L109.28059997914633,135.61120066728554L111.19086516143798,135.83471430255508L113.10113034372966,136.08660392079392L115.01139552602132,136.16212680055236L116.92166070831298,135.5771497375183L118.83192589060467,135.98008553160057L120.74219107289632,136.20840107695503L122.65245625518799,136.44588454861258L124.56272143747967,136.72745908040048L126.47298661977132,136.50874777154235L128.38325180206297,138.15279497155953L130.29351698435465,138.937274870459L132.20378216664633,139.00144827294807L134.114047348938,139.31794718754273L136.02431253122967,140.79435926518934L137.93457771352132,146.39660462820322L139.84484289581297,146.42716299479181L141.75510807810466,143.22419654366533L143.66537326039634,144.74731879158134L145.575638442688,146.08447131350022L147.48590362497967,143.32984106349258L149.39616880727132,141.76655579616508L151.30643398956298,139.02196567652055L153.21669917185466,139.44716578025435L155.12696435414634,142.78895547691536L157.037229536438,148.3396887595749L158.94749471872967,147.53425514690971L160.85775990102132,143.40012613929937L162.76802508331298,141.29770135882072L164.67829026560463,140.8738110183197L166.58855544789634,140.30804242827836L168.498820630188,139.41005859750175L170.40908581247965,140.1238179430542L172.31935099477133,141.2723812125103L174.22961617706298,141.76349995950622L176.13988135935463,141.04799454052772L178.05014654164634,140.97509077090837L179.960411723938,141.68579427980194L181.87067690622965,141.85604851231156L183.78094208852133,141.84338885548286L185.69120727081298,141.6238040935852L187.60147245310463,140.9528264612568L189.51173763539634,141.08204505396844L191.422002817688,141.7346876663437L193.33226799997965,142.27731932634697L195.24253318227133,142.01189701456642L197.15279836456298,141.7277025399864L199.06306354685464,141.40814862138595L200.97332872914635,142.1969941201771L202.883593911438,143.00068249206925L204.79385909372965,143.26348611003723L206.7041242760213,143.4839434923214L208.61438945831298,143.2495158573227L210.52465464060467,143.84366043033333L212.43491982289632,144.45832323956947L214.345185005188,144.5268614092972L216.25545018747965,144.98654833666498L218.1657153697713,145.60208376628762L220.075980552063,145.92513149704627L221.98624573435467,148.1611396374752L223.89651091664632,149.92873048340607L225.806776098938,151.10785211945077L227.71704128122965,152.0813584136593L229.6273064635213,152.58993956022186L231.537571645813,152.25292324205475L233.44783682810467,151.25846240142747L235.35810201039632,150.48926085316927L237.268367192688,150.53160625620004L239.17863237497966,150.12430569487915L241.0888975572713,149.5821103450691L242.99916273956296,149.50571442859763L244.90942792185467,148.04763737090417L246.81969310414632,148.0402151017006L248.72995828643798,147.94286463881036L250.64022346872966,147.87127146507683L252.5504886510213,147.67045720067253L254.46075383331296,147.91492579868736L256.37101901560465,147.8014235321163L258.28128419789635,147.79531185879858" fill="none"></path></g><g><path style="fill: none;" stroke="rgb(255, 112, 67)" stroke-width="2px" d="M25.22893195831299,131.32951843731655L27.139197140604654,130.66639899407883L29.04946232289632,130.25647854200665L30.95972750518799,129.60907493052179L32.86999268747965,128.5552432219801L34.780257869771326,126.13719277178306L36.690523052062986,122.34793866173668L38.60078823435465,117.15648600689583L40.51105341664632,101.92089209927254L42.421318598937994,91.65629179889984L44.331583781229654,78.79771082820626L46.24184896352132,65.60430008623007L48.152114145812995,60.25393809655725L50.062379328104655,58.307801459138865L51.97264451039632,55.548802278627406L53.88290969268799,51.821973832337974L55.793174874979655,47.64899656446725L57.70344005727132,44.734591020465444L59.61370523956299,42.048931919766616L61.52397042185465,40.79821377937624L63.43423560414632,41.43339482483788L65.34450078643799,41.49844168036652L67.25476596872966,41.58880784955254L69.16503115102132,41.81144595014994L71.07529633331299,40.775518988102704L72.98556151560464,40.638877293534456L74.89582669789633,39.8421748806526L76.80609188018799,39.83038451359827L78.71635706247964,39.57282161386757L80.62662224477133,39.33970540740774L82.536887427063,39.497296652476514L84.44715260935465,38.80841947773515" fill="none"></path></g></g></g></g></g></g><g transform="translate(50, 174)" clip-path="url(#clip_1)"><clipPath id="clip_1"><rect width="279" height="25"></rect></clipPath><g><g><line x1="0" y1="0" x2="0" y2="5" style="visibility: inherit;" fill="rgb(0, 0, 0)" stroke="rgb(204, 204, 204)" stroke-width="1px"></line><line x1="23.31866677602132" y1="0" x2="23.31866677602132" y2="5" style="visibility: inherit;" fill="rgb(0, 0, 0)" stroke="rgb(204, 204, 204)" stroke-width="1px"></line><line x1="46.63733355204264" y1="0" x2="46.63733355204264" y2="5" style="visibility: inherit;" fill="rgb(0, 0, 0)" stroke="rgb(204, 204, 204)" stroke-width="1px"></line><line x1="69.95600032806396" y1="0" x2="69.95600032806396" y2="5" style="visibility: inherit;" fill="rgb(0, 0, 0)" stroke="rgb(204, 204, 204)" stroke-width="1px"></line><line x1="93.27466710408528" y1="0" x2="93.27466710408528" y2="5" style="visibility: inherit;" fill="rgb(0, 0, 0)" stroke="rgb(204, 204, 204)" stroke-width="1px"></line><line x1="116.59333388010661" y1="0" x2="116.59333388010661" y2="5" style="visibility: inherit;" fill="rgb(0, 0, 0)" stroke="rgb(204, 204, 204)" stroke-width="1px"></line><line x1="139.91200065612793" y1="0" x2="139.91200065612793" y2="5" style="visibility: inherit;" fill="rgb(0, 0, 0)" stroke="rgb(204, 204, 204)" stroke-width="1px"></line><line x1="163.23066743214926" y1="0" x2="163.23066743214926" y2="5" style="visibility: inherit;" fill="rgb(0, 0, 0)" stroke="rgb(204, 204, 204)" stroke-width="1px"></line><line x1="186.54933420817056" y1="0" x2="186.54933420817056" y2="5" style="visibility: inherit;" fill="rgb(0, 0, 0)" stroke="rgb(204, 204, 204)" stroke-width="1px"></line><line x1="209.8680009841919" y1="0" x2="209.8680009841919" y2="5" style="visibility: inherit;" fill="rgb(0, 0, 0)" stroke="rgb(204, 204, 204)" stroke-width="1px"></line><line x1="233.18666776021323" y1="0" x2="233.18666776021323" y2="5" style="visibility: inherit;" fill="rgb(0, 0, 0)" stroke="rgb(204, 204, 204)" stroke-width="1px"></line><line x1="256.5053345362345" y1="0" x2="256.5053345362345" y2="5" style="visibility: inherit;" fill="rgb(0, 0, 0)" stroke="rgb(204, 204, 204)" stroke-width="1px"></line><line x1="279.82400131225586" y1="0" x2="279.82400131225586" y2="5" style="visibility: inherit;" fill="rgb(0, 0, 0)" stroke="rgb(204, 204, 204)" stroke-width="1px"></line></g><g transform="translate(0, 8)"><text style="text-anchor: middle; visibility: hidden; font-family: Roboto, sans-serif; font-size: 12px; font-weight: 200;" x="0" y="0" dx="0em" dy="0.95em" fill="rgb(33, 33, 33)" stroke="none" stroke-width="1px">-100k</text><text style="text-anchor: middle; visibility: inherit; font-family: Roboto, sans-serif; font-size: 12px; font-weight: 200;" x="23.31866677602132" y="0" dx="0em" dy="0.95em" fill="rgb(33, 33, 33)" stroke="none" stroke-width="1px">0</text><text style="text-anchor: middle; visibility: hidden; font-family: Roboto, sans-serif; font-size: 12px; font-weight: 200;" x="46.63733355204264" y="0" dx="0em" dy="0.95em" fill="rgb(33, 33, 33)" stroke="none" stroke-width="1px">100k</text><text style="text-anchor: middle; visibility: inherit; font-family: Roboto, sans-serif; font-size: 12px; font-weight: 200;" x="69.95600032806396" y="0" dx="0em" dy="0.95em" fill="rgb(33, 33, 33)" stroke="none" stroke-width="1px">200k</text><text style="text-anchor: middle; visibility: hidden; font-family: Roboto, sans-serif; font-size: 12px; font-weight: 200;" x="93.27466710408528" y="0" dx="0em" dy="0.95em" fill="rgb(33, 33, 33)" stroke="none" stroke-width="1px">300k</text><text style="text-anchor: middle; visibility: inherit; font-family: Roboto, sans-serif; font-size: 12px; font-weight: 200;" x="116.59333388010661" y="0" dx="0em" dy="0.95em" fill="rgb(33, 33, 33)" stroke="none" stroke-width="1px">400k</text><text style="text-anchor: middle; visibility: hidden; font-family: Roboto, sans-serif; font-size: 12px; font-weight: 200;" x="139.91200065612793" y="0" dx="0em" dy="0.95em" fill="rgb(33, 33, 33)" stroke="none" stroke-width="1px">500k</text><text style="text-anchor: middle; visibility: inherit; font-family: Roboto, sans-serif; font-size: 12px; font-weight: 200;" x="163.23066743214926" y="0" dx="0em" dy="0.95em" fill="rgb(33, 33, 33)" stroke="none" stroke-width="1px">600k</text><text style="text-anchor: middle; visibility: hidden; font-family: Roboto, sans-serif; font-size: 12px; font-weight: 200;" x="186.54933420817056" y="0" dx="0em" dy="0.95em" fill="rgb(33, 33, 33)" stroke="none" stroke-width="1px">700k</text><text style="text-anchor: middle; visibility: inherit; font-family: Roboto, sans-serif; font-size: 12px; font-weight: 200;" x="209.8680009841919" y="0" dx="0em" dy="0.95em" fill="rgb(33, 33, 33)" stroke="none" stroke-width="1px">800k</text><text style="text-anchor: middle; visibility: hidden; font-family: Roboto, sans-serif; font-size: 12px; font-weight: 200;" x="233.18666776021323" y="0" dx="0em" dy="0.95em" fill="rgb(33, 33, 33)" stroke="none" stroke-width="1px">900k</text><text style="text-anchor: middle; visibility: inherit; font-family: Roboto, sans-serif; font-size: 12px; font-weight: 200;" x="256.5053345362345" y="0" dx="0em" dy="0.95em" fill="rgb(33, 33, 33)" stroke="none" stroke-width="1px">1M</text><text style="text-anchor: middle; visibility: hidden; font-family: Roboto, sans-serif; font-size: 12px; font-weight: 200;" x="279.82400131225586" y="0" dx="0em" dy="0.95em" fill="rgb(33, 33, 33)" stroke="none" stroke-width="1px">1.1M</text></g><line x1="0" y1="0" x2="279.82400131225586" y2="0" fill="rgb(0, 0, 0)" stroke="rgb(204, 204, 204)" stroke-width="1px"></line></g></g></g></g></svg>