<svg viewBox="0 0 330 200" xmlns="http://www.w3.org/2000/svg"><g><g><g><g><g><line x1="40.131999015808105" y1="174.61999893188477" x2="35.131999015808105" y2="174.61999893188477" style="visibility: inherit;" fill="rgb(0, 0, 0)" stroke="rgb(204, 204, 204)" stroke-width="1px"></line><line x1="40.131999015808105" y1="152.79249906539917" x2="35.131999015808105" y2="152.79249906539917" style="visibility: inherit;" fill="rgb(0, 0, 0)" stroke="rgb(204, 204, 204)" stroke-width="1px"></line><line x1="40.131999015808105" y1="130.96499919891357" x2="35.131999015808105" y2="130.96499919891357" style="visibility: inherit;" fill="rgb(0, 0, 0)" stroke="rgb(204, 204, 204)" stroke-width="1px"></line><line x1="40.131999015808105" y1="109.13749933242798" x2="35.131999015808105" y2="109.13749933242798" style="visibility: inherit;" fill="rgb(0, 0, 0)" stroke="rgb(204, 204, 204)" stroke-width="1px"></line><line x1="40.131999015808105" y1="87.30999946594238" x2="35.131999015808105" y2="87.30999946594238" style="visibility: inherit;" fill="rgb(0, 0, 0)" stroke="rgb(204, 204, 204)" stroke-width="1px"></line><line x1="40.131999015808105" y1="65.48249959945679" x2="35.131999015808105" y2="65.48249959945679" style="visibility: inherit;" fill="rgb(0, 0, 0)" stroke="rgb(204, 204, 204)" stroke-width="1px"></line><line x1="40.131999015808105" y1="43.65499973297119" x2="35.131999015808105" y2="43.65499973297119" style="visibility: inherit;" fill="rgb(0, 0, 0)" stroke="rgb(204, 204, 204)" stroke-width="1px"></line><line x1="40.131999015808105" y1="21.827499866485596" x2="35.131999015808105" y2="21.827499866485596" style="visibility: inherit;" fill="rgb(0, 0, 0)" stroke="rgb(204, 204, 204)" stroke-width="1px"></line><line x1="40.131999015808105" y1="0" x2="35.131999015808105" y2="0" style="visibility: inherit;" fill="rgb(0, 0, 0)" stroke="rgb(204, 204, 204)" stroke-width="1px"></line></g><g transform="translate(30.131999015808105, 0)"><text style="text-anchor: end; visibility: hidden; font-family: Roboto, sans-serif; font-size: 12px; font-weight: 200;" x="0" y="174.61999893188477" dx="0em" dy="0.3em" fill="rgb(33, 33, 33)" stroke="none" stroke-width="1px">50</text><text style="text-anchor: end; visibility: inherit; font-family: Roboto, sans-serif; font-size: 12px; font-weight: 200;" x="0" y="152.79249906539917" dx="0em" dy="0.3em" fill="rgb(33, 33, 33)" stroke="none" stroke-width="1px">100</text><text style="text-anchor: end; visibility: hidden; font-family: Roboto, sans-serif; font-size: 12px; font-weight: 200;" x="0" y="130.96499919891357" dx="0em" dy="0.3em" fill="rgb(33, 33, 33)" stroke="none" stroke-width="1px">150</text><text style="text-anchor: end; visibility: inherit; font-family: Roboto, sans-serif; font-size: 12px; font-weight: 200;" x="0" y="109.13749933242798" dx="0em" dy="0.3em" fill="rgb(33, 33, 33)" stroke="none" stroke-width="1px">200</text><text style="text-anchor: end; visibility: hidden; font-family: Roboto, sans-serif; font-size: 12px; font-weight: 200;" x="0" y="87.30999946594238" dx="0em" dy="0.3em" fill="rgb(33, 33, 33)" stroke="none" stroke-width="1px">250</text><text style="text-anchor: end; visibility: inherit; font-family: Roboto, sans-serif; font-size: 12px; font-weight: 200;" x="0" y="65.48249959945679" dx="0em" dy="0.3em" fill="rgb(33, 33, 33)" stroke="none" stroke-width="1px">300</text><text style="text-anchor: end; visibility: hidden; font-family: Roboto, sans-serif; font-size: 12px; font-weight: 200;" x="0" y="43.65499973297119" dx="0em" dy="0.3em" fill="rgb(33, 33, 33)" stroke="none" stroke-width="1px">350</text><text style="text-anchor: end; visibility: inherit; font-family: Roboto, sans-serif; font-size: 12px; font-weight: 200;" x="0" y="21.827499866485596" dx="0em" dy="0.3em" fill="rgb(33, 33, 33)" stroke="none" stroke-width="1px">400</text><text style="text-anchor: end; visibility: hidden; font-family: Roboto, sans-serif; font-size: 12px; font-weight: 200;" x="0" y="0" dx="0em" dy="0.3em" fill="rgb(33, 33, 33)" stroke="none" stroke-width="1px">450</text></g><line x1="40.131999015808105" y1="0" x2="40.131999015808105" y2="174.61999893188477" fill="rgb(0, 0, 0)" stroke="rgb(204, 204, 204)" stroke-width="1px"></line></g></g><g transform="translate(40, 0)" clip-path="url(#clip_0)"><clipPath id="clip_0"><rect width="289" height="174"></rect></clipPath><g><g><g><line x1="0" y1="0" x2="0" y2="174.61999893188477" fill="rgb(0, 0, 0)" stroke="rgb(66, 66, 66)" stroke-width="1px" opacity="0.25"></line><line x1="24.155666748682656" y1="0" x2="24.155666748682656" y2="174.61999893188477" fill="rgb(0, 0, 0)" stroke="rgb(66, 66, 66)" stroke-width="1px" opacity="0.25"></line><line x1="48.31133349736531" y1="0" x2="48.31133349736531" y2="174.61999893188477" fill="rgb(0, 0, 0)" stroke="rgb(66, 66, 66)" stroke-width="1px" opacity="0.25"></line><line x1="72.46700024604797" y1="0" x2="72.46700024604797" y2="174.61999893188477" fill="rgb(0, 0, 0)" stroke="rgb(66, 66, 66)" stroke-width="1px" opacity="0.25"></line><line x1="96.62266699473062" y1="0" x2="96.62266699473062" y2="174.61999893188477" fill="rgb(0, 0, 0)" stroke="rgb(66, 66, 66)" stroke-width="1px" opacity="0.25"></line><line x1="120.7783337434133" y1="0" x2="120.7783337434133" y2="174.61999893188477" fill="rgb(0, 0, 0)" stroke="rgb(66, 66, 66)" stroke-width="1px" opacity="0.25"></line><line x1="144.93400049209595" y1="0" x2="144.93400049209595" y2="174.61999893188477" fill="rgb(0, 0, 0)" stroke="rgb(66, 66, 66)" stroke-width="1px" opacity="0.25"></line><line x1="169.08966724077862" y1="0" x2="169.08966724077862" y2="174.61999893188477" fill="rgb(0, 0, 0)" stroke="rgb(66, 66, 66)" stroke-width="1px" opacity="0.25"></line><line x1="193.24533398946124" y1="0" x2="193.24533398946124" y2="174.61999893188477" fill="rgb(0, 0, 0)" stroke="rgb(66, 66, 66)" stroke-width="1px" opacity="0.25"></line><line x1="217.40100073814392" y1="0" x2="217.40100073814392" y2="174.61999893188477" fill="rgb(0, 0, 0)" stroke="rgb(66, 66, 66)" stroke-width="1px" opacity="0.25"></line><line x1="241.5566674868266" y1="0" x2="241.5566674868266" y2="174.61999893188477" fill="rgb(0, 0, 0)" stroke="rgb(66, 66, 66)" stroke-width="1px" opacity="0.25"></line><line x1="265.7123342355092" y1="0" x2="265.7123342355092" y2="174.61999893188477" fill="rgb(0, 0, 0)" stroke="rgb(66, 66, 66)" stroke-width="1px" opacity="0.25"></line><line x1="289.8680009841919" y1="0" x2="289.8680009841919" y2="174.61999893188477" fill="rgb(0, 0, 0)" stroke="rgb(66, 66, 66)" stroke-width="1px" opacity="0.25"></line></g><g><line x1="0" y1="174.61999893188477" x2="289.8680009841919" y2="174.61999893188477" fill="rgb(0, 0, 0)" stroke="rgb(66, 66, 66)" stroke-width="1px" opacity="0.25"></line><line x1="0" y1="152.79249906539917" x2="289.8680009841919" y2="152.79249906539917" fill="rgb(0, 0, 0)" stroke="rgb(66, 66, 66)" stroke-width="1px" opacity="0.25"></line><line x1="0" y1="130.96499919891357" x2="289.8680009841919" y2="130.96499919891357" fill="rgb(0, 0, 0)" stroke="rgb(66, 66, 66)" stroke-width="1px" opacity="0.25"></line><line x1="0" y1="109.13749933242798" x2="289.8680009841919" y2="109.13749933242798" fill="rgb(0, 0, 0)" stroke="rgb(66, 66, 66)" stroke-width="1px" opacity="0.25"></line><line x1="0" y1="87.30999946594238" x2="289.8680009841919" y2="87.30999946594238" fill="rgb(0, 0, 0)" stroke="rgb(66, 66, 66)" stroke-width="1px" opacity="0.25"></line><line x1="0" y1="65.48249959945679" x2="289.8680009841919" y2="65.48249959945679" fill="rgb(0, 0, 0)" stroke="rgb(66, 66, 66)" stroke-width="1px" opacity="0.25"></line><line x1="0" y1="43.65499973297119" x2="289.8680009841919" y2="43.65499973297119" fill="rgb(0, 0, 0)" stroke="rgb(66, 66, 66)" stroke-width="1px" opacity="0.25"></line><line x1="0" y1="21.827499866485596" x2="289.8680009841919" y2="21.827499866485596" fill="rgb(0, 0, 0)" stroke="rgb(66, 66, 66)" stroke-width="1px" opacity="0.25"></line><line x1="0" y1="0" x2="289.8680009841919" y2="0" fill="rgb(0, 0, 0)" stroke="rgb(66, 66, 66)" stroke-width="1px" opacity="0.25"></line></g></g></g><g><g><line x1="0" y1="196.44749879837036" x2="289.8680009841919" y2="196.44749879837036" fill="rgb(0, 0, 0)" stroke="rgb(153, 153, 153)" stroke-width="1.5px"></line></g></g><g><g><line x1="24.155666748682656" y1="0" x2="24.155666748682656" y2="174.61999893188477" fill="rgb(0, 0, 0)" stroke="rgb(153, 153, 153)" stroke-width="1.5px"></line></g></g><g><g><g><g><g><path style="fill: none;" stroke="rgb(204, 51, 17)" stroke-width="2px" d="M26.134498968734743,137.07669916152955L28.113331188786823,140.89651163816453L30.092163408838907,143.84767871194958L32.07099562889099,145.35028458886288L34.049827848943075,145.16999074977608L36.02866006899516,143.42273409854457L38.007492289047235,141.1705123261959L39.986324509099326,138.61699782758902L41.96515672915141,135.70143623161724L43.943988949203494,132.74124226400045L45.92282116925557,130.10034394837393L47.90165338930766,126.9469417998569L49.880485609359745,124.35990593673267L51.85931782941182,122.80984857774742L53.838150049463906,121.70588978807028L55.816982269516,120.86917753445574L57.79581448956807,119.6687030320516L59.77464670962016,118.77391065683311L61.75347892967224,118.06246275507412L63.73231114972432,117.4609953772574L65.71114336977641,116.92550519521407L67.68997558982849,116.42959630684064L69.66880780988058,115.60819101737236L71.64764002993266,115.11535199531802L73.62647224998474,114.81965007665555L75.60530447003681,114.46760916669777L77.58413669008891,114.43100518270863L79.562968910141,114.05980260396186L81.54180113019306,113.83708120260401L83.52063335024516,113.7034484143097L85.49946557029725,113.44864873814625L87.47829779034932,113.29576895407872L89.45713001040141,113.20404109142521L91.43596223045348,112.7997643687665L93.41479445050557,112.73181834451813L95.39362667055767,112.69105073071664L97.37245889060974,112.66659016270489L99.35129111066182,112.65191382199471L101.33012333071392,112.46848801828257L103.30895555076599,112.35843253631681L105.28778777081807,112.2923992472315L107.26661999087015,112.42739927283013L109.24545221092224,112.50839928814773L111.22428443097432,112.38237929836119L113.2031166510264,112.1321473055532L115.18194887107849,111.98200810988507L117.16078109113059,111.89192459249018L119.13961331118266,111.83787448205538L121.11844553123474,111.80544441579528L123.09727775128684,111.61136637710621L125.07610997133891,111.49491955389377L127.05494219139099,111.42505145996668L129.0337744114431,111.38313060361054L131.01260663149515,111.53259808872897L132.99143885154723,111.62227857979995L134.97027107159934,111.50146687551054L136.9491032916514,111.42897985293693L138.92793551170348,111.21086764046085L140.9067677317556,110.90538031404333L142.88559995180765,110.72208791819281L144.86443217185973,110.43749248175067L146.84326439191182,110.26673521988538L148.82209661196393,110.16428086276619L150.800928832016,109.92818824956277L152.77976105206807,109.61191268270886L154.75859327212015,109.42214734259652L156.73742549217224,109.30828813852912L158.71625771222432,109.23997261608868L160.69508993227643,109.19898330262438L162.6739221523285,109.17438971454582L164.65275437238057,109.15963356169867L166.63158659243265,108.97615987105851L168.61041881248474,108.8660756566744L170.58925103253682,108.80002512804396L172.56808325258893,108.76039481086568L174.546915472641,108.7366166205587L176.52574769269307,108.89696970530643L178.50457991274516,108.81856155722318L180.48341213279724,108.7715166683732L182.4622443528493,108.74328973506324L184.4410765729014,108.72635357507725L186.4199087929535,108.71619187908567L188.39874101300558,108.71009486149072L190.37757323305766,108.70643665093372L192.35640545310974,108.70424172459954L194.3352376731618,108.70292476879904L196.3140698932139,108.70213459531874" fill="none"></path></g><g><path style="fill: none;" stroke="rgb(238, 51, 119)" stroke-width="2px" d="M26.134498968734743,138.38634915351867L28.113331188786823,138.1135054051876L30.092163408838907,141.14819607540053L32.07099562889099,144.4932342264582L34.049827848943075,147.5248159609099L36.02866006899516,150.10133948196787L38.007492289047235,152.1070503785545L39.986324509099326,153.80673807118288L41.96515672915141,155.33728686255273L43.943988949203494,156.5970490298987L45.92282116925557,157.52326932912294L47.90165338930766,158.25184716297082L49.880485609359745,158.8628258874694L51.85931782941182,159.22890201404803L53.838150049463906,159.62306614648705L55.816982269516,159.8594459812433L57.79581448956807,160.00123119624817L59.77464670962016,160.2609246991434L61.75347892967224,160.41672392019692L63.73231114972432,160.51019737658942L65.71114336977641,160.3916554335066L67.68997558982849,160.32053193196603L69.66880780988058,160.10323705220608L71.64764002993266,159.9728612226231L73.62647224998474,159.89463612024744L75.60530447003681,159.67308090435372L77.58413669008891,159.54014801669462L79.562968910141,159.2857682650097L81.54180113019306,158.95852045070342L83.52063335024516,158.58755180175282L85.49946557029725,158.36497066486984L87.47829779034932,158.05680198880623L89.45713001040141,157.52266078432407L91.43596223045348,157.02755607402386L93.41479445050557,156.5558732549886L95.39362667055767,156.27286356875695L97.37245889060974,155.9284377588736L99.35129111066182,155.5471622747275L101.33012333071392,155.143776985825L103.30895555076599,154.55250581472805L105.28778777081807,154.0231231135038L107.26661999087015,153.705493493041L109.24545221092224,153.3402957218788L111.22428443097432,152.94655706028686L113.2031166510264,152.5356938644253L115.18194887107849,152.11455594799293L117.16078109113059,151.6872531992119L119.13961331118266,151.2562515510177L121.11844553123474,150.82303056317315L123.09727775128684,150.38847797153684L125.07610997133891,149.9531264176246L127.05494219139099,149.51729548634617L129.0337744114431,149.08117692864778L131.01260663149515,148.64488579509714L132.99143885154723,148.03387111710305L134.97027107159934,147.49264231137494L136.9491032916514,146.8186650300743L138.92793551170348,146.23965866236213L140.9067677317556,145.71763484280297L142.88559995180765,145.22980055213563L144.86443217185973,144.58785997987144L146.84326439191182,144.02807563758105L148.82209661196393,143.51758503327494L150.800928832016,143.0366706717594L152.77976105206807,142.5735020559182L154.75859327212015,141.94636088854966L156.73742549217224,141.39545618919672L158.71625771222432,140.89029337065304L160.69508993227643,140.41257568059495L162.6739221523285,139.9513250676282L164.65275437238057,139.49995470091628L166.63158659243265,138.87989248302534L168.61041881248474,138.33323515335888L170.58925103253682,137.83062075662716L172.56808325258893,137.35443211965622L174.546915472641,136.8940989385418L176.52574769269307,136.44327903094123L178.50457991274516,135.99816708744902L180.48341213279724,135.5564799224218L182.4622443528493,135.1168476244736L184.4410765729014,134.67844824677277L186.4199087929535,134.41540862015228L188.39874101300558,133.90834484631623L190.37757323305766,133.4294865830827L192.35640545310974,132.9675516262107L194.3352376731618,132.5157706531556L196.3140698932139,132.24470206932259L198.292902113266,131.90744092009086L200.27173433331808,131.53046423161993L202.25056655337016,131.12965821960552L204.22939877342222,130.71455461346497L206.2082309934743,130.29087245084878L208.18706321352641,129.86204315434713L210.1658954335785,129.4301255775143L212.14472765363058,128.99635503248268L214.12355987368267,128.56147270653184L216.10239209373472,128.30054331096136L218.08122431378683,127.96936567468717L220.06005653383892,127.59603909399075L222.038888753891,127.19742314664104L224.01772097394309,126.95825357823121L225.99655319399514,126.64013183825341L227.97538541404722,126.27463879533485L229.95421763409934,126.05534296958372L231.93304985415142,125.74914547520116L233.9118820742035,125.39080697963975L235.89071429425556,125.001183883371L237.86954651430764,124.76741002560975L239.84837873435973,124.45252571202113L241.82721095441184,124.26359512386797L243.80604317446392,123.97561677204416L245.784875394516,123.62820976201802L247.76370761456806,123.24514555707043L249.74253983462015,123.01530703410185L251.72137205467223,122.70278392138884L253.70020427472434,122.51527005376104L255.67903649477643,122.22814173425247L257.6578687148285,121.88124474361544L259.6367009348806,121.67310654923322L261.6155331549326,121.37360363367202L263.5943653749847,121.19390188433528L265.57319759503685,120.91146083580136L267.55202981508893,120.56737620774912" fill="none"></path></g><g><path style="fill: none;" stroke="rgb(255, 112, 67)" stroke-width="2px" d="M26.134498968734743,24.010249853134148L28.113331188786823,32.19556230306625L30.092163408838907,36.26037732922301L32.07099562889099,40.059882107902986L34.049827848943075,44.64867356450584L36.02866006899516,46.97923887080074L38.007492289047235,48.1263345379842L39.986324509099326,49.326498747917334L41.96515672915141,50.03356471969644L43.943988949203494,52.03435672136658L45.92282116925557,54.62910756937963L47.90165338930766,55.304915490586325L49.880485609359745,56.58369933167044L51.85931782941182,58.223684611289926L53.838150049463906,59.90566145428947L55.816982269516,62.66103403003929L57.79581448956807,63.96446088336274L59.77464670962016,65.96883992590415L61.75347892967224,68.21912090343474L63.73231114972432,70.44233364572968L65.71114336977641,72.64932841632113L67.68997558982849,74.14811659017779L69.66880780988058,74.1742699790683L71.64764002993266,74.18996188021565L73.62647224998474,73.8501359825512L75.60530447003681,73.47162076547768L77.58413669008891,73.2445120484678L79.562968910141,72.40976654236549L81.54180113019306,71.90891956677618L83.52063335024516,71.25917142445677L85.49946557029725,70.86932263099627L87.47829779034932,71.15927342650309" fill="none"></path></g></g></g></g><g opacity="0.2"><g><g><g><path style="fill: none;" stroke="rgb(204, 51, 17)" stroke-width="2px" d="M26.134498968734743,137.07669916152955L28.113331188786823,143.18839912414552L30.092163408838907,146.6807991027832L32.07099562889099,147.11734910011293L34.049827848943075,144.93459911346434L36.02866006899516,141.00564913749696L38.007492289047235,137.94979915618896L39.986324509099326,134.893949174881L41.96515672915141,131.40154919624328L43.943988949203494,128.3456992149353L45.92282116925557,126.16294922828673L47.90165338930766,122.23399925231932L49.880485609359745,120.48779926300048L51.85931782941182,120.48779926300048L53.838150049463906,120.05124926567078L55.816982269516,119.61469926834107L57.79581448956807,117.86849927902223L59.77464670962016,117.4319492816925L61.75347892967224,116.99539928436278L63.73231114972432,116.55884928703308L65.71114336977641,116.12229928970338L67.68997558982849,115.68574929237366L69.66880780988058,114.37609930038452L71.64764002993266,114.37609930038452L73.62647224998474,114.37609930038452L75.60530447003681,113.93954930305482L77.58413669008891,114.37609930038452L79.562968910141,113.5029993057251L81.54180113019306,113.5029993057251L83.52063335024516,113.5029993057251L85.49946557029725,113.06644930839538L87.47829779034932,113.06644930839538L89.45713001040141,113.06644930839538L91.43596223045348,112.19334931373598L93.41479445050557,112.62989931106567L95.39362667055767,112.62989931106567L97.37245889060974,112.62989931106567L99.35129111066182,112.62989931106567L101.33012333071392,112.19334931373598L103.30895555076599,112.19334931373598L105.28778777081807,112.19334931373598L107.26661999087015,112.62989931106567L109.24545221092224,112.62989931106567L111.22428443097432,112.19334931373598L113.2031166510264,111.75679931640626L115.18194887107849,111.75679931640626L117.16078109113059,111.75679931640626L119.13961331118266,111.75679931640626L121.11844553123474,111.75679931640626L123.09727775128684,111.32024931907652L125.07610997133891,111.32024931907652L127.05494219139099,111.32024931907652L129.0337744114431,111.32024931907652L131.01260663149515,111.75679931640626L132.99143885154723,111.75679931640626L134.97027107159934,111.32024931907652L136.9491032916514,111.32024931907652L138.92793551170348,110.88369932174683L140.9067677317556,110.44714932441713L142.88559995180765,110.44714932441713L144.86443217185973,110.0105993270874L146.84326439191182,110.0105993270874L148.82209661196393,110.0105993270874L150.800928832016,109.57404932975768L152.77976105206807,109.13749933242798L154.75859327212015,109.13749933242798L156.73742549217224,109.13749933242798L158.71625771222432,109.13749933242798L160.69508993227643,109.13749933242798L162.6739221523285,109.13749933242798L164.65275437238057,109.13749933242798L166.63158659243265,108.70094933509827L168.61041881248474,108.70094933509827L170.58925103253682,108.70094933509827L172.56808325258893,108.70094933509827L174.546915472641,108.70094933509827L176.52574769269307,109.13749933242798L178.50457991274516,108.70094933509827L180.48341213279724,108.70094933509827L182.4622443528493,108.70094933509827L184.4410765729014,108.70094933509827L186.4199087929535,108.70094933509827L188.39874101300558,108.70094933509827L190.37757323305766,108.70094933509827L192.35640545310974,108.70094933509827L194.3352376731618,108.70094933509827L196.3140698932139,108.70094933509827" fill="none"></path></g><g><path style="fill: none;" stroke="rgb(238, 51, 119)" stroke-width="2px" d="M26.134498968734743,138.38634915351867L28.113331188786823,137.94979915618896L30.092163408838907,144.06149911880493L32.07099562889099,148.42699909210205L34.049827848943075,151.48284907341002L36.02866006899516,153.66559906005858L38.007492289047235,154.97524905204773L39.986324509099326,156.28489904403688L41.96515672915141,157.594549036026L43.943988949203494,158.4676490306854L45.92282116925557,158.90419902801514L47.90165338930766,159.34074902534485L49.880485609359745,159.77729902267455L51.85931782941182,159.77729902267455L53.838150049463906,160.21384902000426L55.816982269516,160.21384902000426L57.79581448956807,160.21384902000426L59.77464670962016,160.650399017334L61.75347892967224,160.650399017334L63.73231114972432,160.650399017334L65.71114336977641,160.21384902000426L67.68997558982849,160.21384902000426L69.66880780988058,159.77729902267455L71.64764002993266,159.77729902267455L73.62647224998474,159.77729902267455L75.60530447003681,159.34074902534485L77.58413669008891,159.34074902534485L79.562968910141,158.90419902801514L81.54180113019306,158.4676490306854L83.52063335024516,158.03109903335573L85.49946557029725,158.03109903335573L87.47829779034932,157.594549036026L89.45713001040141,156.72144904136658L91.43596223045348,156.28489904403688L93.41479445050557,155.84834904670714L95.39362667055767,155.84834904670714L97.37245889060974,155.41179904937744L99.35129111066182,154.97524905204773L101.33012333071392,154.53869905471802L103.30895555076599,153.66559906005858L105.28778777081807,153.22904906272888L107.26661999087015,153.22904906272888L109.24545221092224,152.79249906539917L111.22428443097432,152.35594906806946L113.2031166510264,151.91939907073976L115.18194887107849,151.48284907341002L117.16078109113059,151.04629907608032L119.13961331118266,150.6097490787506L121.11844553123474,150.1731990814209L123.09727775128684,149.7366490840912L125.07610997133891,149.30009908676146L127.05494219139099,148.86354908943176L129.0337744114431,148.42699909210205L131.01260663149515,147.99044909477234L132.99143885154723,147.11734910011293L134.97027107159934,146.6807991027832L136.9491032916514,145.80769910812378L138.92793551170348,145.37114911079408L140.9067677317556,144.93459911346434L142.88559995180765,144.49804911613464L144.86443217185973,143.62494912147523L146.84326439191182,143.18839912414552L148.82209661196393,142.75184912681578L150.800928832016,142.31529912948608L152.77976105206807,141.87874913215637L154.75859327212015,141.00564913749696L156.73742549217224,140.56909914016722L158.71625771222432,140.13254914283752L160.69508993227643,139.6959991455078L162.6739221523285,139.2594491481781L164.65275437238057,138.8228991508484L166.63158659243265,137.94979915618896L168.61041881248474,137.51324915885925L170.58925103253682,137.07669916152955L172.56808325258893,136.6401491641998L174.546915472641,136.20359916687013L176.52574769269307,135.7670491695404L178.50457991274516,135.3304991722107L180.48341213279724,134.893949174881L182.4622443528493,134.45739917755128L184.4410765729014,134.02084918022155L186.4199087929535,134.02084918022155L188.39874101300558,133.14774918556213L190.37757323305766,132.71119918823243L192.35640545310974,132.27464919090272L194.3352376731618,131.838099193573L196.3140698932139,131.838099193573L198.292902113266,131.40154919624328L200.27173433331808,130.96499919891357L202.25056655337016,130.52844920158387L204.22939877342222,130.09189920425416L206.2082309934743,129.65534920692443L208.18706321352641,129.21879920959472L210.1658954335785,128.78224921226501L212.14472765363058,128.3456992149353L214.12355987368267,127.90914921760557L216.10239209373472,127.90914921760557L218.08122431378683,127.47259922027588L220.06005653383892,127.03604922294618L222.038888753891,126.59949922561646L224.01772097394309,126.59949922561646L225.99655319399514,126.16294922828673L227.97538541404722,125.72639923095703L229.95421763409934,125.72639923095703L231.93304985415142,125.28984923362732L233.9118820742035,124.85329923629762L235.89071429425556,124.4167492389679L237.86954651430764,124.4167492389679L239.84837873435973,123.98019924163818L241.82721095441184,123.98019924163818L243.80604317446392,123.54364924430847L245.784875394516,123.10709924697878L247.76370761456806,122.67054924964906L249.74253983462015,122.67054924964906L251.72137205467223,122.23399925231932L253.70020427472434,122.23399925231932L255.67903649477643,121.79744925498963L257.6578687148285,121.36089925765992L259.6367009348806,121.36089925765992L261.6155331549326,120.9243492603302L263.5943653749847,120.9243492603302L265.57319759503685,120.48779926300048L267.55202981508893,120.05124926567078" fill="none"></path></g><g><path style="fill: none;" stroke="rgb(255, 112, 67)" stroke-width="2px" d="M26.134498968734743,24.010249853134148L28.113331188786823,37.10674977302552L30.092163408838907,40.16259975433349L32.07099562889099,44.52809972763062L34.049827848943075,50.63979969024659L36.02866006899516,50.20324969291686L38.007492289047235,49.766699695587164L39.986324509099326,51.07634968757629L41.96515672915141,51.07634968757629L43.943988949203494,55.00529966354369L45.92282116925557,58.49769964218139L47.90165338930766,56.314949655532835L49.880485609359745,58.49769964218139L51.85931782941182,60.68044962882996L53.838150049463906,62.42664961814881L55.816982269516,66.79214959144592L57.79581448956807,65.9190495967865L59.77464670962016,68.97489957809448L61.75347892967224,71.59419956207276L63.73231114972432,73.7769495487213L65.71114336977641,75.95969953536988L67.68997558982849,76.39624953269958L69.66880780988058,74.21349954605104L71.64764002993266,74.21349954605104L73.62647224998474,73.34039955139161L75.60530447003681,72.90384955406189L77.58413669008891,72.90384955406189L79.562968910141,71.15764956474304L81.54180113019306,71.15764956474304L83.52063335024516,70.28454957008361L85.49946557029725,70.28454957008361L87.47829779034932,71.59419956207276" fill="none"></path></g></g></g></g></g></g><g transform="translate(40, 174)" clip-path="url(#clip_1)"><clipPath id="clip_1"><rect width="289" height="25"></rect></clipPath><g><g><line x1="0" y1="0" x2="0" y2="5" style="visibility: inherit;" fill="rgb(0, 0, 0)" stroke="rgb(204, 204, 204)" stroke-width="1px"></line><line x1="24.155666748682656" y1="0" x2="24.155666748682656" y2="5" style="visibility: inherit;" fill="rgb(0, 0, 0)" stroke="rgb(204, 204, 204)" stroke-width="1px"></line><line x1="48.31133349736531" y1="0" x2="48.31133349736531" y2="5" style="visibility: inherit;" fill="rgb(0, 0, 0)" stroke="rgb(204, 204, 204)" stroke-width="1px"></line><line x1="72.46700024604797" y1="0" x2="72.46700024604797" y2="5" style="visibility: inherit;" fill="rgb(0, 0, 0)" stroke="rgb(204, 204, 204)" stroke-width="1px"></line><line x1="96.62266699473062" y1="0" x2="96.62266699473062" y2="5" style="visibility: inherit;" fill="rgb(0, 0, 0)" stroke="rgb(204, 204, 204)" stroke-width="1px"></line><line x1="120.7783337434133" y1="0" x2="120.7783337434133" y2="5" style="visibility: inherit;" fill="rgb(0, 0, 0)" stroke="rgb(204, 204, 204)" stroke-width="1px"></line><line x1="144.93400049209595" y1="0" x2="144.93400049209595" y2="5" style="visibility: inherit;" fill="rgb(0, 0, 0)" stroke="rgb(204, 204, 204)" stroke-width="1px"></line><line x1="169.08966724077862" y1="0" x2="169.08966724077862" y2="5" style="visibility: inherit;" fill="rgb(0, 0, 0)" stroke="rgb(204, 204, 204)" stroke-width="1px"></line><line x1="193.24533398946124" y1="0" x2="193.24533398946124" y2="5" style="visibility: inherit;" fill="rgb(0, 0, 0)" stroke="rgb(204, 204, 204)" stroke-width="1px"></line><line x1="217.40100073814392" y1="0" x2="217.40100073814392" y2="5" style="visibility: inherit;" fill="rgb(0, 0, 0)" stroke="rgb(204, 204, 204)" stroke-width="1px"></line><line x1="241.5566674868266" y1="0" x2="241.5566674868266" y2="5" style="visibility: inherit;" fill="rgb(0, 0, 0)" stroke="rgb(204, 204, 204)" stroke-width="1px"></line><line x1="265.7123342355092" y1="0" x2="265.7123342355092" y2="5" style="visibility: inherit;" fill="rgb(0, 0, 0)" stroke="rgb(204, 204, 204)" stroke-width="1px"></line><line x1="289.8680009841919" y1="0" x2="289.8680009841919" y2="5" style="visibility: inherit;" fill="rgb(0, 0, 0)" stroke="rgb(204, 204, 204)" stroke-width="1px"></line></g><g transform="translate(0, 8)"><text style="text-anchor: middle; visibility: hidden; font-family: Roboto, sans-serif; font-size: 12px; font-weight: 200;" x="0" y="0" dx="0em" dy="0.95em" fill="rgb(33, 33, 33)" stroke="none" stroke-width="1px">-100k</text><text style="text-anchor: middle; visibility: inherit; font-family: Roboto, sans-serif; font-size: 12px; font-weight: 200;" x="24.155666748682656" y="0" dx="0em" dy="0.95em" fill="rgb(33, 33, 33)" stroke="none" stroke-width="1px">0</text><text style="text-anchor: middle; visibility: hidden; font-family: Roboto, sans-serif; font-size: 12px; font-weight: 200;" x="48.31133349736531" y="0" dx="0em" dy="0.95em" fill="rgb(33, 33, 33)" stroke="none" stroke-width="1px">100k</text><text style="text-anchor: middle; visibility: inherit; font-family: Roboto, sans-serif; font-size: 12px; font-weight: 200;" x="72.46700024604797" y="0" dx="0em" dy="0.95em" fill="rgb(33, 33, 33)" stroke="none" stroke-width="1px">200k</text><text style="text-anchor: middle; visibility: hidden; font-family: Roboto, sans-serif; font-size: 12px; font-weight: 200;" x="96.62266699473062" y="0" dx="0em" dy="0.95em" fill="rgb(33, 33, 33)" stroke="none" stroke-width="1px">300k</text><text style="text-anchor: middle; visibility: inherit; font-family: Roboto, sans-serif; font-size: 12px; font-weight: 200;" x="120.7783337434133" y="0" dx="0em" dy="0.95em" fill="rgb(33, 33, 33)" stroke="none" stroke-width="1px">400k</text><text style="text-anchor: middle; visibility: hidden; font-family: Roboto, sans-serif; font-size: 12px; font-weight: 200;" x="144.93400049209595" y="0" dx="0em" dy="0.95em" fill="rgb(33, 33, 33)" stroke="none" stroke-width="1px">500k</text><text style="text-anchor: middle; visibility: inherit; font-family: Roboto, sans-serif; font-size: 12px; font-weight: 200;" x="169.08966724077862" y="0" dx="0em" dy="0.95em" fill="rgb(33, 33, 33)" stroke="none" stroke-width="1px">600k</text><text style="text-anchor: middle; visibility: hidden; font-family: Roboto, sans-serif; font-size: 12px; font-weight: 200;" x="193.24533398946124" y="0" dx="0em" dy="0.95em" fill="rgb(33, 33, 33)" stroke="none" stroke-width="1px">700k</text><text style="text-anchor: middle; visibility: inherit; font-family: Roboto, sans-serif; font-size: 12px; font-weight: 200;" x="217.40100073814392" y="0" dx="0em" dy="0.95em" fill="rgb(33, 33, 33)" stroke="none" stroke-width="1px">800k</text><text style="text-anchor: middle; visibility: hidden; font-family: Roboto, sans-serif; font-size: 12px; font-weight: 200;" x="241.5566674868266" y="0" dx="0em" dy="0.95em" fill="rgb(33, 33, 33)" stroke="none" stroke-width="1px">900k</text><text style="text-anchor: middle; visibility: inherit; font-family: Roboto, sans-serif; font-size: 12px; font-weight: 200;" x="265.7123342355092" y="0" dx="0em" dy="0.95em" fill="rgb(33, 33, 33)" stroke="none" stroke-width="1px">1M</text><text style="text-anchor: middle; visibility: hidden; font-family: Roboto, sans-serif; font-size: 12px; font-weight: 200;" x="289.8680009841919" y="0" dx="0em" dy="0.95em" fill="rgb(33, 33, 33)" stroke="none" stroke-width="1px">1.1M</text></g><line x1="0" y1="0" x2="289.8680009841919" y2="0" fill="rgb(0, 0, 0)" stroke="rgb(204, 204, 204)" stroke-width="1px"></line></g></g></g></g></svg>