<svg viewBox="0 0 330 200" xmlns="http://www.w3.org/2000/svg"><link xmlns="" type="text/css" rel="stylesheet" id="dark-mode-custom-link"/><link xmlns="" type="text/css" rel="stylesheet" id="dark-mode-general-link"/><style xmlns="" lang="en" type="text/css" id="dark-mode-custom-style"/><style xmlns="" lang="en" type="text/css" id="dark-mode-native-style"/><g><g><g><g><g><line x1="40.131999015808105" y1="174.61999893188477" x2="35.131999015808105" y2="174.61999893188477" style="visibility: inherit;" fill="rgb(0, 0, 0)" stroke="rgb(204, 204, 204)" stroke-width="1px"/><line x1="40.131999015808105" y1="152.79249906539917" x2="35.131999015808105" y2="152.79249906539917" style="visibility: inherit;" fill="rgb(0, 0, 0)" stroke="rgb(204, 204, 204)" stroke-width="1px"/><line x1="40.131999015808105" y1="130.96499919891357" x2="35.131999015808105" y2="130.96499919891357" style="visibility: inherit;" fill="rgb(0, 0, 0)" stroke="rgb(204, 204, 204)" stroke-width="1px"/><line x1="40.131999015808105" y1="109.13749933242798" x2="35.131999015808105" y2="109.13749933242798" style="visibility: inherit;" fill="rgb(0, 0, 0)" stroke="rgb(204, 204, 204)" stroke-width="1px"/><line x1="40.131999015808105" y1="87.30999946594238" x2="35.131999015808105" y2="87.30999946594238" style="visibility: inherit;" fill="rgb(0, 0, 0)" stroke="rgb(204, 204, 204)" stroke-width="1px"/><line x1="40.131999015808105" y1="65.48249959945679" x2="35.131999015808105" y2="65.48249959945679" style="visibility: inherit;" fill="rgb(0, 0, 0)" stroke="rgb(204, 204, 204)" stroke-width="1px"/><line x1="40.131999015808105" y1="43.65499973297119" x2="35.131999015808105" y2="43.65499973297119" style="visibility: inherit;" fill="rgb(0, 0, 0)" stroke="rgb(204, 204, 204)" stroke-width="1px"/><line x1="40.131999015808105" y1="21.827499866485596" x2="35.131999015808105" y2="21.827499866485596" style="visibility: inherit;" fill="rgb(0, 0, 0)" stroke="rgb(204, 204, 204)" stroke-width="1px"/><line x1="40.131999015808105" y1="0" x2="35.131999015808105" y2="0" style="visibility: inherit;" fill="rgb(0, 0, 0)" stroke="rgb(204, 204, 204)" stroke-width="1px"/></g><g transform="translate(30.131999015808105, 0)"><text style="text-anchor: end; visibility: hidden; font-family: Roboto, sans-serif; font-size: 12px; font-weight: 200;" x="0" y="174.61999893188477" dx="0em" dy="0.3em" fill="rgb(33, 33, 33)" stroke="none" stroke-width="1px">-50</text><text style="text-anchor: end; visibility: inherit; font-family: Roboto, sans-serif; font-size: 12px; font-weight: 200;" x="0" y="152.79249906539917" dx="0em" dy="0.3em" fill="rgb(33, 33, 33)" stroke="none" stroke-width="1px">0</text><text style="text-anchor: end; visibility: hidden; font-family: Roboto, sans-serif; font-size: 12px; font-weight: 200;" x="0" y="130.96499919891357" dx="0em" dy="0.3em" fill="rgb(33, 33, 33)" stroke="none" stroke-width="1px">50</text><text style="text-anchor: end; visibility: inherit; font-family: Roboto, sans-serif; font-size: 12px; font-weight: 200;" x="0" y="109.13749933242798" dx="0em" dy="0.3em" fill="rgb(33, 33, 33)" stroke="none" stroke-width="1px">100</text><text style="text-anchor: end; visibility: hidden; font-family: Roboto, sans-serif; font-size: 12px; font-weight: 200;" x="0" y="87.30999946594238" dx="0em" dy="0.3em" fill="rgb(33, 33, 33)" stroke="none" stroke-width="1px">150</text><text style="text-anchor: end; visibility: inherit; font-family: Roboto, sans-serif; font-size: 12px; font-weight: 200;" x="0" y="65.48249959945679" dx="0em" dy="0.3em" fill="rgb(33, 33, 33)" stroke="none" stroke-width="1px">200</text><text style="text-anchor: end; visibility: hidden; font-family: Roboto, sans-serif; font-size: 12px; font-weight: 200;" x="0" y="43.65499973297119" dx="0em" dy="0.3em" fill="rgb(33, 33, 33)" stroke="none" stroke-width="1px">250</text><text style="text-anchor: end; visibility: inherit; font-family: Roboto, sans-serif; font-size: 12px; font-weight: 200;" x="0" y="21.827499866485596" dx="0em" dy="0.3em" fill="rgb(33, 33, 33)" stroke="none" stroke-width="1px">300</text><text style="text-anchor: end; visibility: hidden; font-family: Roboto, sans-serif; font-size: 12px; font-weight: 200;" x="0" y="0" dx="0em" dy="0.3em" fill="rgb(33, 33, 33)" stroke="none" stroke-width="1px">350</text></g><line x1="40.131999015808105" y1="0" x2="40.131999015808105" y2="174.61999893188477" fill="rgb(0, 0, 0)" stroke="rgb(204, 204, 204)" stroke-width="1px"/></g></g><g transform="translate(40, 0)" clip-path="url(#clip_0)"><clipPath id="clip_0"><rect width="289" height="174"/></clipPath><g><g><g><line x1="0" y1="0" x2="0" y2="174.61999893188477" fill="rgb(0, 0, 0)" stroke="rgb(66, 66, 66)" stroke-width="1px" opacity="0.25"/><line x1="32.20755566491021" y1="0" x2="32.20755566491021" y2="174.61999893188477" fill="rgb(0, 0, 0)" stroke="rgb(66, 66, 66)" stroke-width="1px" opacity="0.25"/><line x1="64.41511132982042" y1="0" x2="64.41511132982042" y2="174.61999893188477" fill="rgb(0, 0, 0)" stroke="rgb(66, 66, 66)" stroke-width="1px" opacity="0.25"/><line x1="96.62266699473062" y1="0" x2="96.62266699473062" y2="174.61999893188477" fill="rgb(0, 0, 0)" stroke="rgb(66, 66, 66)" stroke-width="1px" opacity="0.25"/><line x1="128.83022265964084" y1="0" x2="128.83022265964084" y2="174.61999893188477" fill="rgb(0, 0, 0)" stroke="rgb(66, 66, 66)" stroke-width="1px" opacity="0.25"/><line x1="161.03777832455106" y1="0" x2="161.03777832455106" y2="174.61999893188477" fill="rgb(0, 0, 0)" stroke="rgb(66, 66, 66)" stroke-width="1px" opacity="0.25"/><line x1="193.24533398946124" y1="0" x2="193.24533398946124" y2="174.61999893188477" fill="rgb(0, 0, 0)" stroke="rgb(66, 66, 66)" stroke-width="1px" opacity="0.25"/><line x1="225.4528896543715" y1="0" x2="225.4528896543715" y2="174.61999893188477" fill="rgb(0, 0, 0)" stroke="rgb(66, 66, 66)" stroke-width="1px" opacity="0.25"/><line x1="257.6604453192817" y1="0" x2="257.6604453192817" y2="174.61999893188477" fill="rgb(0, 0, 0)" stroke="rgb(66, 66, 66)" stroke-width="1px" opacity="0.25"/><line x1="289.8680009841919" y1="0" x2="289.8680009841919" y2="174.61999893188477" fill="rgb(0, 0, 0)" stroke="rgb(66, 66, 66)" stroke-width="1px" opacity="0.25"/></g><g><line x1="0" y1="174.61999893188477" x2="289.8680009841919" y2="174.61999893188477" fill="rgb(0, 0, 0)" stroke="rgb(66, 66, 66)" stroke-width="1px" opacity="0.25"/><line x1="0" y1="152.79249906539917" x2="289.8680009841919" y2="152.79249906539917" fill="rgb(0, 0, 0)" stroke="rgb(66, 66, 66)" stroke-width="1px" opacity="0.25"/><line x1="0" y1="130.96499919891357" x2="289.8680009841919" y2="130.96499919891357" fill="rgb(0, 0, 0)" stroke="rgb(66, 66, 66)" stroke-width="1px" opacity="0.25"/><line x1="0" y1="109.13749933242798" x2="289.8680009841919" y2="109.13749933242798" fill="rgb(0, 0, 0)" stroke="rgb(66, 66, 66)" stroke-width="1px" opacity="0.25"/><line x1="0" y1="87.30999946594238" x2="289.8680009841919" y2="87.30999946594238" fill="rgb(0, 0, 0)" stroke="rgb(66, 66, 66)" stroke-width="1px" opacity="0.25"/><line x1="0" y1="65.48249959945679" x2="289.8680009841919" y2="65.48249959945679" fill="rgb(0, 0, 0)" stroke="rgb(66, 66, 66)" stroke-width="1px" opacity="0.25"/><line x1="0" y1="43.65499973297119" x2="289.8680009841919" y2="43.65499973297119" fill="rgb(0, 0, 0)" stroke="rgb(66, 66, 66)" stroke-width="1px" opacity="0.25"/><line x1="0" y1="21.827499866485596" x2="289.8680009841919" y2="21.827499866485596" fill="rgb(0, 0, 0)" stroke="rgb(66, 66, 66)" stroke-width="1px" opacity="0.25"/><line x1="0" y1="0" x2="289.8680009841919" y2="0" fill="rgb(0, 0, 0)" stroke="rgb(66, 66, 66)" stroke-width="1px" opacity="0.25"/></g></g></g><g><g><line x1="0" y1="152.79249906539917" x2="289.8680009841919" y2="152.79249906539917" fill="rgb(0, 0, 0)" stroke="rgb(153, 153, 153)" stroke-width="1.5px"/></g></g><g><g><line x1="32.20755566491021" y1="0" x2="32.20755566491021" y2="174.61999893188477" fill="rgb(0, 0, 0)" stroke="rgb(153, 153, 153)" stroke-width="1.5px"/></g></g><g><g><g><g><g><path style="fill: none;" stroke="rgb(204, 51, 17)" stroke-width="2px" d="M34.84599862497966,147.85948401230812L37.4844415850491,147.9577079282379L40.122884545118545,147.8474568064425L42.76132750518799,147.81887853117294L45.39977046525743,146.76480713075125L48.03821342532688,145.49685377491735L50.67665638539632,142.81685876307807L53.31509934546577,139.522514325509L55.95354230553521,132.3955887750778L58.591985265604656,125.894107825315L61.2304282256741,117.42151106706231L63.868871185743544,110.2156573547419L66.50731414581298,102.37550586174015L69.14575710588242,94.08846440696857L71.78420006595188,87.10258742984998L74.42264302602132,81.60139871947803L77.06108598609077,76.06791219066874L79.6995289461602,74.11932440223343L82.33797190622965,73.20351228731367L84.9764148662991,71.92936230955165L87.61485782636855,71.86514273555535L90.25330078643799,73.42790070418216L92.89174374650743,73.42782370934633L95.53018670657687,73.73161870990721L98.16862966664632,74.29631410017163L100.80707262671577,75.63221070946734L103.4455155867852,74.9739224248474L106.08395854685465,74.8216717262666L108.7224015069241,74.8665248031485L111.36084446699354,74.25781980864996L113.999287427063,74.74648869953613L116.63773038713242,75.16367137406795L119.27617334720188,76.01641944972232L121.91461630727132,76.68522787128923L124.55305926734077,77.59116461097449L127.19150222741021,77.86057196471259L129.82994518747964,79.01056621472559L132.4683881475491,81.93744452848362L135.10683110761855,82.01023482290879L137.745274067688,80.39501900738966L140.38371702775743,78.58771299101679L143.02215998782688,77.92940260603797L145.6606029478963,79.55477104243376L148.29904590796576,80.86700742301271L150.93748886803522,81.20382933418473L153.57593182810467,81.88263433192222L156.2143747881741,82.9866520855182L158.85281774824355,83.41332467329009L161.49126070831298,82.76130476438702L164.12970366838243,82.09768604703322L166.76814662845186,81.93175973494368L169.4065895885213,82.72451224881459L172.04503254859077,83.53194068931091L174.68347550866022,83.28648743702685L177.32191846872965,83.20382403262471L179.9603614287991,83.66411606712596L182.59880438886856,82.95543460043015L185.237247348938,82.28401088244122L187.8756903090074,82.20071156943209L190.51413326907686,81.86261004918488L193.15257622914632,82.37045114715468L195.79101918921577,82.60007048535093L198.4294621492852,82.1947737850109L201.06790510935465,82.52434914814431L203.7063480694241,82.81114960626329L206.34479102949356,82.23760440412815L208.983233989563,80.53144075828043L211.62167694963242,80.61308748374938L214.26011990970187,81.32563204786986L216.89856286977133,81.27469903005247L219.53700582984075,82.20105606745166L222.1754487899102,83.03626335397807L224.81389174997966,82.95939595574772L227.45233471004912,82.6705538248738L230.09077767011854,82.59328741417019L232.729220630188,82.77568200452018L235.36766359025745,82.89210238631196L238.00610655032688,82.05567639461219L240.6445495103963,81.66383225155613L243.28299247046576,81.82162076331923L245.9214354305352,81.43958201935018L248.55987839060467,80.89953538802916L251.1983213506741,81.74196772314647L253.83676431074355,83.2183138919598L256.475207270813,82.85908281271647L259.11365023088246,82.54750263285996L261.7520931909519,83.27381637330272" fill="none"/></g><g><path style="fill: none;" stroke="rgb(0, 119, 187)" stroke-width="2px" d="M34.84599862497966,147.45349279789352L37.4844415850491,147.5244319747045L40.122884545118545,147.6797858884877L42.76132750518799,147.4132882912382L45.39977046525743,146.5692136552273L48.03821342532688,144.15062094710575L50.67665638539632,140.88924546092363L53.31509934546577,136.37930815706002L55.95354230553521,128.46037659662215L58.591985265604656,120.40838503200155L61.2304282256741,114.12404640750788L63.868871185743544,107.46480175940688L66.50731414581298,101.390853152435L69.14575710588242,95.4709890802092L71.78420006595188,92.20156285334664L74.42264302602132,89.47933307948803L77.06108598609077,86.08951263981338L79.6995289461602,84.69341696674937L82.33797190622965,84.535163396257L84.9764148662991,83.97221733242492L87.61485782636855,84.22119904121585L90.25330078643799,84.68665050269075L92.89174374650743,84.35299738123011L95.53018670657687,84.69762332031314L98.16862966664632,84.89042787928943L100.80707262671577,85.28026540879603L103.4455155867852,85.08634859855121L106.08395854685465,85.0660375662242L108.7224015069241,85.12020743149094L111.36084446699354,84.40882893719099L113.999287427063,83.5646601950364L116.63773038713242,82.99878619203285L119.27617334720188,83.34202668695833L121.91461630727132,85.20686101080582L124.55305926734077,86.52133778493813L127.19150222741021,87.41828738277329L129.82994518747964,88.54841882901637L132.4683881475491,88.24338624201235L135.10683110761855,88.12148475609307L137.745274067688,88.69443732872898L140.38371702775743,88.62261242139243L143.02215998782688,88.75937586285458L145.6606029478963,88.86762852623094L148.29904590796576,88.93258012423674L150.93748886803522,88.77248439080957L153.57593182810467,87.88714380948547L156.2143747881741,86.58935777196628L158.85281774824355,85.61161945727858L161.49126070831298,85.91379162357778L164.12970366838243,86.53164492068791L166.76814662845186,87.00887520487935L169.4065895885213,88.37087320829382L172.04503254859077,88.98726007736384L174.68347550866022,88.91355590940347L177.32191846872965,87.71509510910721L179.9603614287991,87.50940185210823L182.59880438886856,88.5279995185482L185.237247348938,88.94707771828077L187.8756903090074,88.87373133352735L190.51413326907686,88.95195696902968L193.15257622914632,88.72648557831569L195.79101918921577,88.28037935894773L198.4294621492852,88.3479857055374L201.06790510935465,88.62777805939116L203.7063480694241,88.30497170102319L206.34479102949356,89.09265142736288L208.983233989563,88.7445458010848L211.62167694963242,88.39074750646569L214.26011990970187,88.59930336659762L216.89856286977133,88.51314817608343L219.53700582984075,88.28159401154456L222.1754487899102,87.9278796601921L224.81389174997966,87.75232242153183L227.45233471004912,86.91358461571969L230.09077767011854,85.20546234090857L232.729220630188,86.08394856307326" fill="none"/></g><g><path style="fill: none;" stroke="rgb(255, 112, 67)" stroke-width="2px" d="M34.84599862497966,147.5800922804661L37.4844415850491,148.01937062160565L40.122884545118545,148.01797860945774L42.76132750518799,147.40547221847297L45.39977046525743,146.48715688176478L48.03821342532688,145.337530530193L50.67665638539632,143.00874183734L53.31509934546577,138.90638502893643L55.95354230553521,131.6332897181461L58.591985265604656,123.3128279893365L61.2304282256741,111.93324539824307L63.868871185743544,99.35169498595462L66.50731414581298,88.9038461163286L69.14575710588242,82.66834270341832L71.78420006595188,78.21913042838611L74.42264302602132,71.6645509210185L77.06108598609077,63.68286576579349L79.6995289461602,55.35830528495026L82.33797190622965,48.659716023026036L84.9764148662991,42.05809800900158L87.61485782636855,35.27012144966881L90.25330078643799,31.576363546138122L92.89174374650743,26.756534534692317L95.53018670657687,21.449652475983815L98.16862966664632,20.741656679836257L100.80707262671577,18.364606851084066L103.4455155867852,17.664800127434184L106.08395854685465,17.807193506652503L108.7224015069241,18.01136984228926L111.36084446699354,18.151338665073737L113.999287427063,18.849980498279475L116.63773038713242,20.940280340625105" fill="none"/></g></g></g></g><g opacity="0.2"><g><g><g><path style="fill: none;" stroke="rgb(204, 51, 17)" stroke-width="2px" d="M34.84599862497966,147.85948401230812L37.4844415850491,148.0166422777958L40.122884545118545,147.74161572951888L42.76132750518799,147.78527047945596L45.39977046525743,145.3886115103607L48.03821342532688,143.74281782059097L50.67665638539632,138.9844230162277L53.31509934546577,134.71932850982665L55.95354230553521,121.88475792221071L58.591985265604656,116.24016632351305L61.2304282256741,104.7894617586975L63.868871185743544,99.44609072395325L66.50731414581298,90.64087807715987L69.14575710588242,81.67413740172195L71.78420006595188,76.63198360031893L74.42264302602132,73.35349551841355L77.06108598609077,67.77002398350523L79.6995289461602,71.19693746580889L82.33797190622965,71.82993362969209L84.9764148662991,70.01825380526353L87.61485782636855,71.7688168965149L90.25330078643799,75.77198623390576L92.89174374650743,73.42770821861266L95.53018670657687,74.18730761200713L98.16862966664632,75.1433531719551L100.80707262671577,77.63604992642213L103.4455155867852,73.98649168229677L106.08395854685465,74.59329591213609L108.7224015069241,74.93380437715533L111.36084446699354,73.34476265332414L113.999287427063,75.47949187381745L116.63773038713242,75.78944530286024L119.27617334720188,77.2955414614029L121.91461630727132,77.68844045573424L124.55305926734077,78.95006968156812L127.19150222741021,78.26468298837281L129.82994518747964,80.73555757195281L132.4683881475491,86.32776197195054L135.10683110761855,82.11942026414107L137.745274067688,77.97219528950882L140.38371702775743,75.87675397008134L143.02215998782688,76.94193702936174L145.6606029478963,81.99282369585417L148.29904590796576,82.83536199331283L150.93748886803522,81.70906220085527L153.57593182810467,82.90084182842256L156.2143747881741,84.64267871580887L158.85281774824355,84.05333355492404L161.49126070831298,81.7832749010544L164.12970366838243,81.10225797101593L166.76814662845186,81.68287026681138L169.4065895885213,83.91364101961516L172.04503254859077,84.7430833500519L174.68347550866022,82.91830755860137L177.32191846872965,83.07982892602158L179.9603614287991,84.35455411887742L182.59880438886856,81.89241240038683L185.237247348938,81.27687530545809L187.8756903090074,82.07576259991839L190.51413326907686,81.35545776881409L193.15257622914632,83.13221279410938L195.79101918921577,82.94449949264526L198.4294621492852,81.5868287345009L201.06790510935465,83.01871219284439L203.7063480694241,83.2413502934418L206.34479102949356,81.37728660092544L208.983233989563,77.97219528950882L211.62167694963242,80.73555757195281L214.26011990970187,82.39444889405058L216.89856286977133,81.19829950332641L219.53700582984075,83.59059162355042L222.1754487899102,84.2890742837677L224.81389174997966,82.84409485840224L227.45233471004912,82.23729062856292L230.09077767011854,82.4773877981148L232.729220630188,83.04927389004516L235.36766359025745,83.06673295899964L238.00610655032688,80.80103740706254L240.6445495103963,81.07606603697204L243.28299247046576,82.05830353096388L245.9214354305352,80.8665239033966L248.55987839060467,80.08946544104765L251.1983213506741,83.00561622582245L253.83676431074355,85.43283314517977L256.475207270813,82.32023619385144L259.11365023088246,82.08013236307525L261.7520931909519,84.36328698396683" fill="none"/></g><g><path style="fill: none;" stroke="rgb(0, 119, 187)" stroke-width="2px" d="M34.84599862497966,147.45349279789352L37.4844415850491,147.5669954807911L40.122884545118545,147.82892564571952L42.76132750518799,147.0998871168728L45.39977046525743,145.46718981045152L48.03821342532688,140.80483653839875L50.67665638539632,136.2254263336754L53.31509934546577,129.80377627262877L55.95354230553521,116.78149071824262L58.591985265604656,108.45211596984483L61.2304282256741,104.7545369595642L63.868871185743544,97.51217410255813L66.50731414581298,92.29976273803332L69.14575710588242,86.60279060186004L71.78420006595188,87.30126660085298L74.42264302602132,85.39790834604645L77.06108598609077,81.00621643870545L79.6995289461602,82.5996279256935L82.33797190622965,84.29780714885709L84.9764148662991,83.12784969217682L87.61485782636855,84.59465794965364L90.25330078643799,85.38481237902451L92.89174374650743,83.85252428643797L95.53018670657687,85.21455814651489L98.16862966664632,85.1796333473816L100.80707262671577,85.86502004057694L103.4455155867852,84.795473879364L106.08395854685465,85.03557104891588L108.7224015069241,85.20146217949295L111.36084446699354,83.34176158890914L113.999287427063,82.2984073617401L116.63773038713242,82.14997530011752L119.27617334720188,83.85688738837052L121.91461630727132,88.0041123630028L124.55305926734077,88.4930528896446L127.19150222741021,88.76371175639724L129.82994518747964,90.24361598089601L132.4683881475491,87.78583736433792L135.10683110761855,87.93863252789306L137.745274067688,89.55386618576811L140.38371702775743,88.51487506053162L143.02215998782688,88.96452102488328L145.6606029478963,89.03000752121734L148.29904590796576,89.03000752121734L150.93748886803522,88.53234079071045L153.57593182810467,86.55913293763733L156.2143747881741,84.64267871580887L158.85281774824355,84.14501198530198L161.49126070831298,86.36704987301637L164.12970366838243,87.45842486634065L166.76814662845186,87.72472063116074L169.4065895885213,90.4138702134056L172.04503254859077,89.91184038096618L174.68347550866022,88.80299965746309L177.32191846872965,85.91740390866471L179.9603614287991,87.20086196660996L182.59880438886856,90.05589601820758L185.237247348938,89.57569501787948L187.8756903090074,88.76371175639724L190.51413326907686,89.06929542228318L193.15257622914632,88.38827849224471L195.79101918921577,87.61122002989579L198.4294621492852,88.4493952254219L201.06790510935465,89.04746659017184L203.7063480694241,87.82076216347124L206.34479102949356,90.27417101687243L208.983233989563,88.22238736166766L211.62167694963242,87.86005006453706L214.26011990970187,88.9121371567955L216.89856286977133,88.38391539031218L219.53700582984075,87.9342627647362L222.1754487899102,87.39730813316346L224.81389174997966,87.48898656354142L227.45233471004912,85.65547790700148L230.09077767011854,82.64327892869188L232.729220630188,87.40167789632032" fill="none"/></g><g><path style="fill: none;" stroke="rgb(255, 112, 67)" stroke-width="2px" d="M34.84599862497966,147.5800922804661L37.4844415850491,148.28293762628937L40.122884545118545,148.0166422777958L42.76132750518799,146.68516470267485L45.39977046525743,145.28820437815858L48.03821342532688,143.74718342048263L50.67665638539632,139.67853674594116L53.31509934546577,132.92510941965867L55.95354230553521,120.90688686076355L58.591985265604656,110.95791202194596L61.2304282256741,94.96708348816684L63.868871185743544,80.54783760926439L66.50731414581298,73.26618685119247L69.14575710588242,73.32730358436966L71.78420006595188,71.55054189785005L74.42264302602132,61.837304457263954L77.06108598609077,51.71371561461638L79.6995289461602,42.87357816868971L82.33797190622965,38.612852592792485L84.9764148662991,32.15627440200042L87.61485782636855,25.088528879436495L90.25330078643799,26.035848235519364L92.89174374650743,19.526886176639533L95.53018670657687,13.489392252998366L98.16862966664632,19.679668017746003L100.80707262671577,14.799042244987511L103.4455155867852,16.615091832572944L106.08395854685465,18.020783356872567L108.7224015069241,18.317634157669087L111.36084446699354,18.361291821891793L113.999287427063,19.897943016410856L116.63773038713242,24.075729688243886" fill="none"/></g></g></g></g></g></g><g transform="translate(40, 174)" clip-path="url(#clip_1)"><clipPath id="clip_1"><rect width="289" height="25"/></clipPath><g><g><line x1="0" y1="0" x2="0" y2="5" style="visibility: inherit;" fill="rgb(0, 0, 0)" stroke="rgb(204, 204, 204)" stroke-width="1px"/><line x1="32.20755566491021" y1="0" x2="32.20755566491021" y2="5" style="visibility: inherit;" fill="rgb(0, 0, 0)" stroke="rgb(204, 204, 204)" stroke-width="1px"/><line x1="64.41511132982042" y1="0" x2="64.41511132982042" y2="5" style="visibility: inherit;" fill="rgb(0, 0, 0)" stroke="rgb(204, 204, 204)" stroke-width="1px"/><line x1="96.62266699473062" y1="0" x2="96.62266699473062" y2="5" style="visibility: inherit;" fill="rgb(0, 0, 0)" stroke="rgb(204, 204, 204)" stroke-width="1px"/><line x1="128.83022265964084" y1="0" x2="128.83022265964084" y2="5" style="visibility: inherit;" fill="rgb(0, 0, 0)" stroke="rgb(204, 204, 204)" stroke-width="1px"/><line x1="161.03777832455106" y1="0" x2="161.03777832455106" y2="5" style="visibility: inherit;" fill="rgb(0, 0, 0)" stroke="rgb(204, 204, 204)" stroke-width="1px"/><line x1="193.24533398946124" y1="0" x2="193.24533398946124" y2="5" style="visibility: inherit;" fill="rgb(0, 0, 0)" stroke="rgb(204, 204, 204)" stroke-width="1px"/><line x1="225.4528896543715" y1="0" x2="225.4528896543715" y2="5" style="visibility: inherit;" fill="rgb(0, 0, 0)" stroke="rgb(204, 204, 204)" stroke-width="1px"/><line x1="257.6604453192817" y1="0" x2="257.6604453192817" y2="5" style="visibility: inherit;" fill="rgb(0, 0, 0)" stroke="rgb(204, 204, 204)" stroke-width="1px"/><line x1="289.8680009841919" y1="0" x2="289.8680009841919" y2="5" style="visibility: inherit;" fill="rgb(0, 0, 0)" stroke="rgb(204, 204, 204)" stroke-width="1px"/></g><g transform="translate(0, 8)"><text style="text-anchor: middle; visibility: hidden; font-family: Roboto, sans-serif; font-size: 12px; font-weight: 200;" x="0" y="0" dx="0em" dy="0.95em" fill="rgb(33, 33, 33)" stroke="none" stroke-width="1px">-100k</text><text style="text-anchor: middle; visibility: inherit; font-family: Roboto, sans-serif; font-size: 12px; font-weight: 200;" x="32.20755566491021" y="0" dx="0em" dy="0.95em" fill="rgb(33, 33, 33)" stroke="none" stroke-width="1px">0</text><text style="text-anchor: middle; visibility: hidden; font-family: Roboto, sans-serif; font-size: 12px; font-weight: 200;" x="64.41511132982042" y="0" dx="0em" dy="0.95em" fill="rgb(33, 33, 33)" stroke="none" stroke-width="1px">100k</text><text style="text-anchor: middle; visibility: inherit; font-family: Roboto, sans-serif; font-size: 12px; font-weight: 200;" x="96.62266699473062" y="0" dx="0em" dy="0.95em" fill="rgb(33, 33, 33)" stroke="none" stroke-width="1px">200k</text><text style="text-anchor: middle; visibility: hidden; font-family: Roboto, sans-serif; font-size: 12px; font-weight: 200;" x="128.83022265964084" y="0" dx="0em" dy="0.95em" fill="rgb(33, 33, 33)" stroke="none" stroke-width="1px">300k</text><text style="text-anchor: middle; visibility: inherit; font-family: Roboto, sans-serif; font-size: 12px; font-weight: 200;" x="161.03777832455106" y="0" dx="0em" dy="0.95em" fill="rgb(33, 33, 33)" stroke="none" stroke-width="1px">400k</text><text style="text-anchor: middle; visibility: hidden; font-family: Roboto, sans-serif; font-size: 12px; font-weight: 200;" x="193.24533398946124" y="0" dx="0em" dy="0.95em" fill="rgb(33, 33, 33)" stroke="none" stroke-width="1px">500k</text><text style="text-anchor: middle; visibility: inherit; font-family: Roboto, sans-serif; font-size: 12px; font-weight: 200;" x="225.4528896543715" y="0" dx="0em" dy="0.95em" fill="rgb(33, 33, 33)" stroke="none" stroke-width="1px">600k</text><text style="text-anchor: middle; visibility: hidden; font-family: Roboto, sans-serif; font-size: 12px; font-weight: 200;" x="257.6604453192817" y="0" dx="0em" dy="0.95em" fill="rgb(33, 33, 33)" stroke="none" stroke-width="1px">700k</text><text style="text-anchor: middle; visibility: hidden; font-family: Roboto, sans-serif; font-size: 12px; font-weight: 200;" x="289.8680009841919" y="0" dx="0em" dy="0.95em" fill="rgb(33, 33, 33)" stroke="none" stroke-width="1px">800k</text></g><line x1="0" y1="0" x2="289.8680009841919" y2="0" fill="rgb(0, 0, 0)" stroke="rgb(204, 204, 204)" stroke-width="1px"/></g></g></g></g></svg>