<svg viewBox="0 0 330 200" xmlns="http://www.w3.org/2000/svg"><link xmlns="" type="text/css" rel="stylesheet" id="dark-mode-custom-link"/><link xmlns="" type="text/css" rel="stylesheet" id="dark-mode-general-link"/><style xmlns="" lang="en" type="text/css" id="dark-mode-custom-style"/><style xmlns="" lang="en" type="text/css" id="dark-mode-native-style"/><g><g><g><g><g><line x1="40.131999015808105" y1="174.61999893188477" x2="35.131999015808105" y2="174.61999893188477" style="visibility: inherit;" fill="rgb(0, 0, 0)" stroke="rgb(204, 204, 204)" stroke-width="1px"/><line x1="40.131999015808105" y1="162.14714186532157" x2="35.131999015808105" y2="162.14714186532157" style="visibility: inherit;" fill="rgb(0, 0, 0)" stroke="rgb(204, 204, 204)" stroke-width="1px"/><line x1="40.131999015808105" y1="149.67428479875838" x2="35.131999015808105" y2="149.67428479875838" style="visibility: inherit;" fill="rgb(0, 0, 0)" stroke="rgb(204, 204, 204)" stroke-width="1px"/><line x1="40.131999015808105" y1="137.20142773219516" x2="35.131999015808105" y2="137.20142773219516" style="visibility: inherit;" fill="rgb(0, 0, 0)" stroke="rgb(204, 204, 204)" stroke-width="1px"/><line x1="40.131999015808105" y1="124.72857066563198" x2="35.131999015808105" y2="124.72857066563198" style="visibility: inherit;" fill="rgb(0, 0, 0)" stroke="rgb(204, 204, 204)" stroke-width="1px"/><line x1="40.131999015808105" y1="112.25571359906877" x2="35.131999015808105" y2="112.25571359906877" style="visibility: inherit;" fill="rgb(0, 0, 0)" stroke="rgb(204, 204, 204)" stroke-width="1px"/><line x1="40.131999015808105" y1="99.78285653250558" x2="35.131999015808105" y2="99.78285653250558" style="visibility: inherit;" fill="rgb(0, 0, 0)" stroke="rgb(204, 204, 204)" stroke-width="1px"/><line x1="40.131999015808105" y1="87.30999946594238" x2="35.131999015808105" y2="87.30999946594238" style="visibility: inherit;" fill="rgb(0, 0, 0)" stroke="rgb(204, 204, 204)" stroke-width="1px"/><line x1="40.131999015808105" y1="74.83714239937919" x2="35.131999015808105" y2="74.83714239937919" style="visibility: inherit;" fill="rgb(0, 0, 0)" stroke="rgb(204, 204, 204)" stroke-width="1px"/><line x1="40.131999015808105" y1="62.36428533281598" x2="35.131999015808105" y2="62.36428533281598" style="visibility: inherit;" fill="rgb(0, 0, 0)" stroke="rgb(204, 204, 204)" stroke-width="1px"/><line x1="40.131999015808105" y1="49.89142826625279" x2="35.131999015808105" y2="49.89142826625279" style="visibility: inherit;" fill="rgb(0, 0, 0)" stroke="rgb(204, 204, 204)" stroke-width="1px"/><line x1="40.131999015808105" y1="37.418571199689595" x2="35.131999015808105" y2="37.418571199689595" style="visibility: inherit;" fill="rgb(0, 0, 0)" stroke="rgb(204, 204, 204)" stroke-width="1px"/><line x1="40.131999015808105" y1="24.945714133126405" x2="35.131999015808105" y2="24.945714133126405" style="visibility: inherit;" fill="rgb(0, 0, 0)" stroke="rgb(204, 204, 204)" stroke-width="1px"/><line x1="40.131999015808105" y1="12.472857066563192" x2="35.131999015808105" y2="12.472857066563192" style="visibility: inherit;" fill="rgb(0, 0, 0)" stroke="rgb(204, 204, 204)" stroke-width="1px"/><line x1="40.131999015808105" y1="0" x2="35.131999015808105" y2="0" style="visibility: inherit;" fill="rgb(0, 0, 0)" stroke="rgb(204, 204, 204)" stroke-width="1px"/></g><g transform="translate(30.131999015808105, 0)"><text style="text-anchor: end; visibility: hidden; font-family: Roboto, sans-serif; font-size: 12px; font-weight: 200;" x="0" y="174.61999893188477" dx="0em" dy="0.3em" fill="rgb(33, 33, 33)" stroke="none" stroke-width="1px">-20</text><text style="text-anchor: end; visibility: inherit; font-family: Roboto, sans-serif; font-size: 12px; font-weight: 200;" x="0" y="162.14714186532157" dx="0em" dy="0.3em" fill="rgb(33, 33, 33)" stroke="none" stroke-width="1px">0</text><text style="text-anchor: end; visibility: hidden; font-family: Roboto, sans-serif; font-size: 12px; font-weight: 200;" x="0" y="149.67428479875838" dx="0em" dy="0.3em" fill="rgb(33, 33, 33)" stroke="none" stroke-width="1px">20</text><text style="text-anchor: end; visibility: hidden; font-family: Roboto, sans-serif; font-size: 12px; font-weight: 200;" x="0" y="137.20142773219516" dx="0em" dy="0.3em" fill="rgb(33, 33, 33)" stroke="none" stroke-width="1px">40</text><text style="text-anchor: end; visibility: inherit; font-family: Roboto, sans-serif; font-size: 12px; font-weight: 200;" x="0" y="124.72857066563198" dx="0em" dy="0.3em" fill="rgb(33, 33, 33)" stroke="none" stroke-width="1px">60</text><text style="text-anchor: end; visibility: hidden; font-family: Roboto, sans-serif; font-size: 12px; font-weight: 200;" x="0" y="112.25571359906877" dx="0em" dy="0.3em" fill="rgb(33, 33, 33)" stroke="none" stroke-width="1px">80</text><text style="text-anchor: end; visibility: hidden; font-family: Roboto, sans-serif; font-size: 12px; font-weight: 200;" x="0" y="99.78285653250558" dx="0em" dy="0.3em" fill="rgb(33, 33, 33)" stroke="none" stroke-width="1px">100</text><text style="text-anchor: end; visibility: inherit; font-family: Roboto, sans-serif; font-size: 12px; font-weight: 200;" x="0" y="87.30999946594238" dx="0em" dy="0.3em" fill="rgb(33, 33, 33)" stroke="none" stroke-width="1px">120</text><text style="text-anchor: end; visibility: hidden; font-family: Roboto, sans-serif; font-size: 12px; font-weight: 200;" x="0" y="74.83714239937919" dx="0em" dy="0.3em" fill="rgb(33, 33, 33)" stroke="none" stroke-width="1px">140</text><text style="text-anchor: end; visibility: hidden; font-family: Roboto, sans-serif; font-size: 12px; font-weight: 200;" x="0" y="62.36428533281598" dx="0em" dy="0.3em" fill="rgb(33, 33, 33)" stroke="none" stroke-width="1px">160</text><text style="text-anchor: end; visibility: inherit; font-family: Roboto, sans-serif; font-size: 12px; font-weight: 200;" x="0" y="49.89142826625279" dx="0em" dy="0.3em" fill="rgb(33, 33, 33)" stroke="none" stroke-width="1px">180</text><text style="text-anchor: end; visibility: hidden; font-family: Roboto, sans-serif; font-size: 12px; font-weight: 200;" x="0" y="37.418571199689595" dx="0em" dy="0.3em" fill="rgb(33, 33, 33)" stroke="none" stroke-width="1px">200</text><text style="text-anchor: end; visibility: hidden; font-family: Roboto, sans-serif; font-size: 12px; font-weight: 200;" x="0" y="24.945714133126405" dx="0em" dy="0.3em" fill="rgb(33, 33, 33)" stroke="none" stroke-width="1px">220</text><text style="text-anchor: end; visibility: inherit; font-family: Roboto, sans-serif; font-size: 12px; font-weight: 200;" x="0" y="12.472857066563192" dx="0em" dy="0.3em" fill="rgb(33, 33, 33)" stroke="none" stroke-width="1px">240</text><text style="text-anchor: end; visibility: hidden; font-family: Roboto, sans-serif; font-size: 12px; font-weight: 200;" x="0" y="0" dx="0em" dy="0.3em" fill="rgb(33, 33, 33)" stroke="none" stroke-width="1px">260</text></g><line x1="40.131999015808105" y1="0" x2="40.131999015808105" y2="174.61999893188477" fill="rgb(0, 0, 0)" stroke="rgb(204, 204, 204)" stroke-width="1px"/></g></g><g transform="translate(40, 0)" clip-path="url(#clip_0)"><clipPath id="clip_0"><rect width="289" height="174"/></clipPath><g><g><g><line x1="0" y1="0" x2="0" y2="174.61999893188477" fill="rgb(0, 0, 0)" stroke="rgb(66, 66, 66)" stroke-width="1px" opacity="0.25"/><line x1="32.20755566491021" y1="0" x2="32.20755566491021" y2="174.61999893188477" fill="rgb(0, 0, 0)" stroke="rgb(66, 66, 66)" stroke-width="1px" opacity="0.25"/><line x1="64.41511132982042" y1="0" x2="64.41511132982042" y2="174.61999893188477" fill="rgb(0, 0, 0)" stroke="rgb(66, 66, 66)" stroke-width="1px" opacity="0.25"/><line x1="96.62266699473062" y1="0" x2="96.62266699473062" y2="174.61999893188477" fill="rgb(0, 0, 0)" stroke="rgb(66, 66, 66)" stroke-width="1px" opacity="0.25"/><line x1="128.83022265964084" y1="0" x2="128.83022265964084" y2="174.61999893188477" fill="rgb(0, 0, 0)" stroke="rgb(66, 66, 66)" stroke-width="1px" opacity="0.25"/><line x1="161.03777832455106" y1="0" x2="161.03777832455106" y2="174.61999893188477" fill="rgb(0, 0, 0)" stroke="rgb(66, 66, 66)" stroke-width="1px" opacity="0.25"/><line x1="193.24533398946124" y1="0" x2="193.24533398946124" y2="174.61999893188477" fill="rgb(0, 0, 0)" stroke="rgb(66, 66, 66)" stroke-width="1px" opacity="0.25"/><line x1="225.4528896543715" y1="0" x2="225.4528896543715" y2="174.61999893188477" fill="rgb(0, 0, 0)" stroke="rgb(66, 66, 66)" stroke-width="1px" opacity="0.25"/><line x1="257.6604453192817" y1="0" x2="257.6604453192817" y2="174.61999893188477" fill="rgb(0, 0, 0)" stroke="rgb(66, 66, 66)" stroke-width="1px" opacity="0.25"/><line x1="289.8680009841919" y1="0" x2="289.8680009841919" y2="174.61999893188477" fill="rgb(0, 0, 0)" stroke="rgb(66, 66, 66)" stroke-width="1px" opacity="0.25"/></g><g><line x1="0" y1="174.61999893188477" x2="289.8680009841919" y2="174.61999893188477" fill="rgb(0, 0, 0)" stroke="rgb(66, 66, 66)" stroke-width="1px" opacity="0.25"/><line x1="0" y1="162.14714186532157" x2="289.8680009841919" y2="162.14714186532157" fill="rgb(0, 0, 0)" stroke="rgb(66, 66, 66)" stroke-width="1px" opacity="0.25"/><line x1="0" y1="149.67428479875838" x2="289.8680009841919" y2="149.67428479875838" fill="rgb(0, 0, 0)" stroke="rgb(66, 66, 66)" stroke-width="1px" opacity="0.25"/><line x1="0" y1="137.20142773219516" x2="289.8680009841919" y2="137.20142773219516" fill="rgb(0, 0, 0)" stroke="rgb(66, 66, 66)" stroke-width="1px" opacity="0.25"/><line x1="0" y1="124.72857066563198" x2="289.8680009841919" y2="124.72857066563198" fill="rgb(0, 0, 0)" stroke="rgb(66, 66, 66)" stroke-width="1px" opacity="0.25"/><line x1="0" y1="112.25571359906877" x2="289.8680009841919" y2="112.25571359906877" fill="rgb(0, 0, 0)" stroke="rgb(66, 66, 66)" stroke-width="1px" opacity="0.25"/><line x1="0" y1="99.78285653250558" x2="289.8680009841919" y2="99.78285653250558" fill="rgb(0, 0, 0)" stroke="rgb(66, 66, 66)" stroke-width="1px" opacity="0.25"/><line x1="0" y1="87.30999946594238" x2="289.8680009841919" y2="87.30999946594238" fill="rgb(0, 0, 0)" stroke="rgb(66, 66, 66)" stroke-width="1px" opacity="0.25"/><line x1="0" y1="74.83714239937919" x2="289.8680009841919" y2="74.83714239937919" fill="rgb(0, 0, 0)" stroke="rgb(66, 66, 66)" stroke-width="1px" opacity="0.25"/><line x1="0" y1="62.36428533281598" x2="289.8680009841919" y2="62.36428533281598" fill="rgb(0, 0, 0)" stroke="rgb(66, 66, 66)" stroke-width="1px" opacity="0.25"/><line x1="0" y1="49.89142826625279" x2="289.8680009841919" y2="49.89142826625279" fill="rgb(0, 0, 0)" stroke="rgb(66, 66, 66)" stroke-width="1px" opacity="0.25"/><line x1="0" y1="37.418571199689595" x2="289.8680009841919" y2="37.418571199689595" fill="rgb(0, 0, 0)" stroke="rgb(66, 66, 66)" stroke-width="1px" opacity="0.25"/><line x1="0" y1="24.945714133126405" x2="289.8680009841919" y2="24.945714133126405" fill="rgb(0, 0, 0)" stroke="rgb(66, 66, 66)" stroke-width="1px" opacity="0.25"/><line x1="0" y1="12.472857066563192" x2="289.8680009841919" y2="12.472857066563192" fill="rgb(0, 0, 0)" stroke="rgb(66, 66, 66)" stroke-width="1px" opacity="0.25"/><line x1="0" y1="0" x2="289.8680009841919" y2="0" fill="rgb(0, 0, 0)" stroke="rgb(66, 66, 66)" stroke-width="1px" opacity="0.25"/></g></g></g><g><g><line x1="0" y1="162.14714186532157" x2="289.8680009841919" y2="162.14714186532157" fill="rgb(0, 0, 0)" stroke="rgb(153, 153, 153)" stroke-width="1.5px"/></g></g><g><g><line x1="32.20755566491021" y1="0" x2="32.20755566491021" y2="174.61999893188477" fill="rgb(0, 0, 0)" stroke="rgb(153, 153, 153)" stroke-width="1.5px"/></g></g><g><g><g><g><g><path style="fill: none;" stroke="rgb(204, 51, 17)" stroke-width="2px" d="M34.84599862497966,162.90923343387283L37.4844415850491,162.14644026220486L40.122884545118545,161.2743345658057L42.76132750518799,160.20747264906194L45.39977046525743,158.40958312588742L48.03821342532688,155.82409555283L50.67665638539632,150.83726720680207L53.31509934546577,144.18607880827795L55.95354230553521,130.48860747604184L58.591985265604656,117.81485861450699L61.2304282256741,102.51252626017909L63.868871185743544,88.99171141464196L66.50731414581298,75.8554558645346L69.14575710588242,62.84808635790307L71.78420006595188,52.20529121613194L74.42264302602132,43.324298309876056L77.06108598609077,36.77151348324427L79.6995289461602,32.966793645397225L82.33797190622965,30.413781129717425L84.9764148662991,27.745253726703943L87.61485782636855,25.22043893856721L90.25330078643799,23.399998777196522L92.89174374650743,22.138865709866472L95.53018670657687,21.628654905036267L98.16862966664632,21.782780008162884L100.80707262671577,21.738303590290517L103.4455155867852,20.941293986750654L106.08395854685465,19.8489234868221L108.7224015069241,19.237907257104464L111.36084446699354,19.530610567098186L113.999287427063,19.537848157664016L116.63773038713242,18.922791960263265L119.27617334720188,18.447486998410334L121.91461630727132,18.163301316294806L124.55305926734077,18.40863683151444L127.19150222741021,18.697528090411193L129.82994518747964,18.34625526411003L132.4683881475491,17.74134882818403L135.10683110761855,17.468959554941762L137.745274067688,17.51656499750841L140.38371702775743,17.836246604704755L143.02215998782688,17.96718720415894L145.6606029478963,17.60171815660635L148.29904590796576,17.355494930555555L150.93748886803522,17.242936065803242L153.57593182810467,17.08509738359701L156.2143747881741,16.88512018505143L158.85281774824355,17.257063379096458L161.49126070831298,17.690522244238142L164.12970366838243,17.523278119693018L166.76814662845186,17.294210146119788L169.4065895885213,17.018821115836843L172.04503254859077,16.81217772085256L174.68347550866022,16.761035026661055L177.32191846872965,16.70864523809003L179.9603614287991,16.70590030650953L182.59880438886856,16.888601779138053L185.237247348938,16.974771346679027L187.8756903090074,16.942157212911148L190.51413326907686,16.974477766931276L193.15257622914632,16.880865283488784L195.79101918921577,16.88506751787267L198.4294621492852,17.066448441236396L201.06790510935465,17.19523402333079L203.7063480694241,17.256290049374687L206.34479102949356,17.300407074727822L208.983233989563,17.465575399617286L211.62167694963242,17.334426417757616L214.26011990970187,17.144977996988096L216.89856286977133,17.09966071892343L219.53700582984075,16.892114848688674L222.1754487899102,16.708214882540197L224.81389174997966,16.684189144440886L227.45233471004912,16.72565185762901L230.09077767011854,16.71859747933724L232.729220630188,16.63528660359575L235.36766359025745,16.67510480128666L238.00610655032688,16.96840988930862L240.6445495103963,17.076041167724764L243.28299247046576,16.960264431378455L245.9214354305352,16.93918932947767L248.55987839060467,16.991154337870846L251.1983213506741,16.860686363827853L253.83676431074355,16.682871662338588L256.475207270813,16.744315949809042L259.11365023088246,16.760726853994278L261.7520931909519,16.599947087037123" fill="none"/></g><g><path style="fill: none;" stroke="rgb(0, 119, 187)" stroke-width="2px" d="M34.84599862497966,162.3947280873115L37.4844415850491,162.02521969132462L40.122884545118545,161.30341672791792L42.76132750518799,159.92942436592014L45.39977046525743,158.10336195710238L48.03821342532688,154.0957282725004L50.67665638539632,147.87301828175768L53.31509934546577,137.91362286598763L55.95354230553521,121.64547451297919L58.591985265604656,104.80725259570568L61.2304282256741,91.7147595518396L63.868871185743544,78.40469951141887L66.50731414581298,65.9760992798534L69.14575710588242,53.70879301660795L71.78420006595188,45.99193212136412L74.42264302602132,39.385634340351935L77.06108598609077,32.83474010899124L79.6995289461602,28.82557958189264L82.33797190622965,26.78008332426024L84.9764148662991,24.599403737701824L87.61485782636855,22.574340650052036L90.25330078643799,21.04276665036398L92.89174374650743,19.716469519673044L95.53018670657687,18.735598772573145L98.16862966664632,17.955745553824972L100.80707262671577,17.506543597781818L103.4455155867852,17.515915340021955L106.08395854685465,17.240898922890533L108.7224015069241,17.170935370794815L111.36084446699354,17.28661134178698L113.999287427063,17.398926617598732L116.63773038713242,17.475043881317735L119.27617334720188,17.261527888036486L121.91461630727132,17.012682652649044L124.55305926734077,16.793276596397508L127.19150222741021,16.382992045486144L129.82994518747964,16.348610188338117L132.4683881475491,16.16583164786977L135.10683110761855,16.033466877888568L137.745274067688,15.831314006142362L140.38371702775743,16.02783119925078L143.02215998782688,16.150979140543498L145.6606029478963,16.001104057708336L148.29904590796576,15.876007743595546L150.93748886803522,15.817911335480597L153.57593182810467,16.006318697916814L156.2143747881741,16.299969842091084L158.85281774824355,16.398330783579585L161.49126070831298,16.31565359105269L164.12970366838243,16.37655889028838L166.76814662845186,16.298601333311833L169.4065895885213,15.96245560164171L172.04503254859077,15.772990557672214L174.68347550866022,15.733898211655598L177.32191846872965,15.900778724686786L179.9603614287991,15.888153439968237L182.59880438886856,15.681263018106632L185.237247348938,15.593301116278633L187.8756903090074,15.62159678483173L190.51413326907686,15.610136467718872L193.15257622914632,15.647913318908646L195.79101918921577,15.707497838035787L198.4294621492852,15.675646638653232L201.06790510935465,15.613877438449693L203.7063480694241,15.644170412282898L206.34479102949356,15.516910734302746L208.983233989563,15.570521123706309L211.62167694963242,15.604933141549305L214.26011990970187,15.577436829251562L216.89856286977133,15.587382199234185L219.53700582984075,15.660951332082579L222.1754487899102,15.7340291702572L224.81389174997966,15.729979767061945L227.45233471004912,15.843299365421013L230.09077767011854,16.125573194920506L232.729220630188,15.963657678100834" fill="none"/></g><g><path style="fill: none;" stroke="rgb(255, 112, 67)" stroke-width="2px" d="M34.84599862497966,162.66788363446864L37.4844415850491,162.07581270300642L40.122884545118545,161.5957906597948L42.76132750518799,160.9589875974766L45.39977046525743,159.98121423235193L48.03821342532688,157.99622720080717L50.67665638539632,154.63856543349087L53.31509934546577,149.66792944194003L55.95354230553521,137.9448400518724L58.591985265604656,125.08588910383857L61.2304282256741,110.04594667108603L63.868871185743544,93.50144003744889L66.50731414581298,80.5364669840825L69.14575710588242,71.65537863748997L71.78420006595188,64.75386927381396L74.42264302602132,58.48482382003551L77.06108598609077,52.33956648882871L79.6995289461602,46.98753412813801L82.33797190622965,42.241906741214656L84.9764148662991,38.679993179061334L87.61485782636855,36.90589695011791L90.25330078643799,35.87863424173713L92.89174374650743,35.313923488987406L95.53018670657687,35.10232226615172L98.16862966664632,34.38340222716021L100.80707262671577,33.87397041035338L103.4455155867852,33.11305288882832L106.08395854685465,32.649765517600486L108.7224015069241,32.22461442287007L111.36084446699354,31.836314576004373L113.999287427063,31.693386874808677L116.63773038713242,31.213986135043708" fill="none"/></g></g></g></g><g opacity="0.2"><g><g><g><path style="fill: none;" stroke="rgb(204, 51, 17)" stroke-width="2px" d="M34.84599862497966,162.90923343387283L37.4844415850491,161.6887643592041L40.122884545118545,160.4371130972625L42.76132750518799,158.95284303497124L45.39977046525743,156.06225856443078L48.03821342532688,152.24743546376527L50.67665638539632,143.70602288272858L53.31509934546577,134.48858227182114L55.95354230553521,110.28749785782514L58.591985265604656,98.99581860451507L61.2304282256741,79.69781875688932L63.868871185743544,68.78406882364652L66.50731414581298,56.19396469293758L69.14575710588242,43.362514888917616L71.78420006595188,36.25360870964921L74.42264302602132,30.009072514761232L77.06108598609077,26.945109162226014L79.6995289461602,27.260679906581316L82.33797190622965,26.584651281958422L84.9764148662991,23.742706536158433L87.61485782636855,21.433355223205574L90.25330078643799,20.66939843749944L92.89174374650743,20.247191007743826L95.53018670657687,20.863344741724315L98.16862966664632,22.013966567397546L100.80707262671577,21.671589153153555L103.4455155867852,19.745781620770043L106.08395854685465,18.210369413975325L108.7224015069241,18.321383475360314L111.36084446699354,19.9696653703161L113.999287427063,19.54870454111265L116.63773038713242,18.000207786537697L119.27617334720188,17.73452961237283L121.91461630727132,17.737022813477132L124.55305926734077,18.77664009380012L127.19150222741021,19.13086497130695L129.82994518747964,17.819346030093055L132.4683881475491,16.8339891799104L135.10683110761855,17.060375646595524L137.745274067688,17.587973161199308L140.38371702775743,18.315769014858237L143.02215998782688,18.16359810318266L145.6606029478963,17.05351458554131L148.29904590796576,16.98616009158598L150.93748886803522,17.07409776870398L153.57593182810467,16.848339360312306L156.2143747881741,16.58515438725174L158.85281774824355,17.814978170143142L161.49126070831298,18.340710541936076L164.12970366838243,17.272411932878768L166.76814662845186,16.9506081857627L169.4065895885213,16.605737570414405L172.04503254859077,16.50221262837711L174.68347550866022,16.684320985373887L177.32191846872965,16.630060555233534L179.9603614287991,16.701782909138803L182.59880438886856,17.162653988080685L185.237247348938,17.104025697990437L187.8756903090074,16.893236012259358L190.51413326907686,17.0229585979614L193.15257622914632,16.740446558325072L195.79101918921577,16.891370869448508L198.4294621492852,17.33851982628196L201.06790510935465,17.388412396472376L203.7063480694241,17.347874088440477L206.34479102949356,17.36658261275755L208.983233989563,17.713327886951454L211.62167694963242,17.137702944968105L214.26011990970187,16.86080536583385L216.89856286977133,17.031684801826483L219.53700582984075,16.58079604333657L222.1754487899102,16.432364933317455L224.81389174997966,16.6481505372919L227.45233471004912,16.787845927411187L230.09077767011854,16.708015911899565L232.729220630188,16.510320289983483L235.36766359025745,16.734832097823016L238.00610655032688,17.408367521341592L240.6445495103963,17.23748808534894L243.28299247046576,16.786599326859026L245.9214354305352,16.907576676626515L248.55987839060467,17.069101850460612L251.1983213506741,16.664984402763363L253.83676431074355,16.4161496101047L256.475207270813,16.8364823810147L259.11365023088246,16.785343210272142L261.7520931909519,16.358777436601358" fill="none"/></g><g><path style="fill: none;" stroke="rgb(0, 119, 187)" stroke-width="2px" d="M34.84599862497966,162.3947280873115L37.4844415850491,161.8035146537325L40.122884545118545,160.61048588304752L42.76132750518799,158.31360934821075L45.39977046525743,155.71925487614988L48.03821342532688,148.55172813856942L50.67665638539632,138.97444343163573L53.31509934546577,123.39272873959895L55.95354230553521,97.65311561742783L58.591985265604656,79.80445544228964L61.2304282256741,72.19476793434087L63.868871185743544,58.5120422097555L66.50731414581298,47.37378046867317L69.14575710588242,35.33186655176542L71.78420006595188,34.425711658800935L74.42264302602132,29.480846941863998L77.06108598609077,23.01117088084304L79.6995289461602,22.81285671666825L82.33797190622965,23.71215054857852L84.9764148662991,21.328583680616113L87.61485782636855,19.53685707784981L90.25330078643799,18.745456047926776L92.89174374650743,17.727050009059887L95.53018670657687,17.26430427127239L98.16862966664632,16.785971268565596L100.80707262671577,16.83274257935824L103.4455155867852,17.52997292940251L106.08395854685465,16.828374719408327L108.7224015069241,17.0659901070976L111.36084446699354,17.46012523434288L113.999287427063,17.567399494071385L116.63773038713242,17.58921976175147L119.27617334720188,16.941253923604183L121.91461630727132,16.639414817392073L124.55305926734077,16.464167521449525L127.19150222741021,15.767565229698706L129.82994518747964,16.297037403148103L132.4683881475491,15.891663838863929L135.10683110761855,15.834919723654039L137.745274067688,15.528084699198581L140.38371702775743,16.32260698851937L143.02215998782688,16.33570105233437L145.6606029478963,15.776291433563792L148.29904590796576,15.688363272480537L150.93748886803522,15.730766723323287L153.57593182810467,16.288929741541704L156.2143747881741,16.740446558325072L158.85281774824355,16.545872195806762L161.49126070831298,16.19163780226517L164.12970366838243,16.467916839140734L166.76814662845186,16.181664997847943L169.4065895885213,15.45823700413893L172.04503254859077,15.48879299171884L174.68347550866022,15.675259692630792L177.32191846872965,16.151099494233286L179.9603614287991,15.869215512890413L182.59880438886856,15.370927385314381L185.237247348938,15.461358263536702L187.8756903090074,15.664040287661406L190.51413326907686,15.592945992049613L193.15257622914632,15.704578595693288L195.79101918921577,15.796874616726457L198.4294621492852,15.62786983957942L201.06790510935465,15.521223638144347L203.7063480694241,15.689609873032696L206.34479102949356,15.326021217332586L208.983233989563,15.650936707811663L211.62167694963242,15.656551168313719L214.26011990970187,15.536192360804959L216.89856286977133,15.60230025420813L219.53700582984075,15.771305031355169L222.1754487899102,15.843645927519123L224.81389174997966,15.72390566226905L227.45233471004912,16.013278762959615L230.09077767011854,16.548983939169773L232.729220630188,15.720784402871297" fill="none"/></g><g><path style="fill: none;" stroke="rgb(255, 112, 67)" stroke-width="2px" d="M34.84599862497966,162.66788363446864L37.4844415850491,161.72057014412908L40.122884545118545,161.13496949831165L42.76132750518799,160.21010719619042L45.39977046525743,158.70463332684517L48.03821342532688,155.2502755408494L50.67665638539632,149.8370553836403L53.31509934546577,142.42069444815337L55.95354230553521,120.65556029440579L58.591985265604656,105.99184557958765L61.2304282256741,87.62244419288253L63.868871185743544,68.77471456148798L66.50731414581298,61.13134029052682L69.14575710588242,58.351145094214836L71.78420006595188,54.4097176934842L74.42264302602132,49.085677055927846L77.06108598609077,43.124280958969656L79.6995289461602,38.96084446753853L82.33797190622965,35.12418860939735L84.9764148662991,33.33744840883967L87.61485782636855,34.24484990235629L90.25330078643799,34.337773981682915L92.89174374650743,34.466868509091526L95.53018670657687,34.78492293851637L98.16862966664632,33.30502727844889L100.80707262671577,33.10982485763713L103.4455155867852,31.971678553520185L106.08395854685465,31.95483517201396L108.7224015069241,31.5868881723987L111.36084446699354,31.253865020313246L113.999287427063,31.478995370411468L116.63773038713242,30.49488512078097" fill="none"/></g></g></g></g></g></g><g transform="translate(40, 174)" clip-path="url(#clip_1)"><clipPath id="clip_1"><rect width="289" height="25"/></clipPath><g><g><line x1="0" y1="0" x2="0" y2="5" style="visibility: inherit;" fill="rgb(0, 0, 0)" stroke="rgb(204, 204, 204)" stroke-width="1px"/><line x1="32.20755566491021" y1="0" x2="32.20755566491021" y2="5" style="visibility: inherit;" fill="rgb(0, 0, 0)" stroke="rgb(204, 204, 204)" stroke-width="1px"/><line x1="64.41511132982042" y1="0" x2="64.41511132982042" y2="5" style="visibility: inherit;" fill="rgb(0, 0, 0)" stroke="rgb(204, 204, 204)" stroke-width="1px"/><line x1="96.62266699473062" y1="0" x2="96.62266699473062" y2="5" style="visibility: inherit;" fill="rgb(0, 0, 0)" stroke="rgb(204, 204, 204)" stroke-width="1px"/><line x1="128.83022265964084" y1="0" x2="128.83022265964084" y2="5" style="visibility: inherit;" fill="rgb(0, 0, 0)" stroke="rgb(204, 204, 204)" stroke-width="1px"/><line x1="161.03777832455106" y1="0" x2="161.03777832455106" y2="5" style="visibility: inherit;" fill="rgb(0, 0, 0)" stroke="rgb(204, 204, 204)" stroke-width="1px"/><line x1="193.24533398946124" y1="0" x2="193.24533398946124" y2="5" style="visibility: inherit;" fill="rgb(0, 0, 0)" stroke="rgb(204, 204, 204)" stroke-width="1px"/><line x1="225.4528896543715" y1="0" x2="225.4528896543715" y2="5" style="visibility: inherit;" fill="rgb(0, 0, 0)" stroke="rgb(204, 204, 204)" stroke-width="1px"/><line x1="257.6604453192817" y1="0" x2="257.6604453192817" y2="5" style="visibility: inherit;" fill="rgb(0, 0, 0)" stroke="rgb(204, 204, 204)" stroke-width="1px"/><line x1="289.8680009841919" y1="0" x2="289.8680009841919" y2="5" style="visibility: inherit;" fill="rgb(0, 0, 0)" stroke="rgb(204, 204, 204)" stroke-width="1px"/></g><g transform="translate(0, 8)"><text style="text-anchor: middle; visibility: hidden; font-family: Roboto, sans-serif; font-size: 12px; font-weight: 200;" x="0" y="0" dx="0em" dy="0.95em" fill="rgb(33, 33, 33)" stroke="none" stroke-width="1px">-100k</text><text style="text-anchor: middle; visibility: inherit; font-family: Roboto, sans-serif; font-size: 12px; font-weight: 200;" x="32.20755566491021" y="0" dx="0em" dy="0.95em" fill="rgb(33, 33, 33)" stroke="none" stroke-width="1px">0</text><text style="text-anchor: middle; visibility: hidden; font-family: Roboto, sans-serif; font-size: 12px; font-weight: 200;" x="64.41511132982042" y="0" dx="0em" dy="0.95em" fill="rgb(33, 33, 33)" stroke="none" stroke-width="1px">100k</text><text style="text-anchor: middle; visibility: inherit; font-family: Roboto, sans-serif; font-size: 12px; font-weight: 200;" x="96.62266699473062" y="0" dx="0em" dy="0.95em" fill="rgb(33, 33, 33)" stroke="none" stroke-width="1px">200k</text><text style="text-anchor: middle; visibility: hidden; font-family: Roboto, sans-serif; font-size: 12px; font-weight: 200;" x="128.83022265964084" y="0" dx="0em" dy="0.95em" fill="rgb(33, 33, 33)" stroke="none" stroke-width="1px">300k</text><text style="text-anchor: middle; visibility: inherit; font-family: Roboto, sans-serif; font-size: 12px; font-weight: 200;" x="161.03777832455106" y="0" dx="0em" dy="0.95em" fill="rgb(33, 33, 33)" stroke="none" stroke-width="1px">400k</text><text style="text-anchor: middle; visibility: hidden; font-family: Roboto, sans-serif; font-size: 12px; font-weight: 200;" x="193.24533398946124" y="0" dx="0em" dy="0.95em" fill="rgb(33, 33, 33)" stroke="none" stroke-width="1px">500k</text><text style="text-anchor: middle; visibility: inherit; font-family: Roboto, sans-serif; font-size: 12px; font-weight: 200;" x="225.4528896543715" y="0" dx="0em" dy="0.95em" fill="rgb(33, 33, 33)" stroke="none" stroke-width="1px">600k</text><text style="text-anchor: middle; visibility: hidden; font-family: Roboto, sans-serif; font-size: 12px; font-weight: 200;" x="257.6604453192817" y="0" dx="0em" dy="0.95em" fill="rgb(33, 33, 33)" stroke="none" stroke-width="1px">700k</text><text style="text-anchor: middle; visibility: hidden; font-family: Roboto, sans-serif; font-size: 12px; font-weight: 200;" x="289.8680009841919" y="0" dx="0em" dy="0.95em" fill="rgb(33, 33, 33)" stroke="none" stroke-width="1px">800k</text></g><line x1="0" y1="0" x2="289.8680009841919" y2="0" fill="rgb(0, 0, 0)" stroke="rgb(204, 204, 204)" stroke-width="1px"/></g></g></g></g></svg>