<svg viewBox="0 0 330 200" xmlns="http://www.w3.org/2000/svg"><link xmlns="" type="text/css" rel="stylesheet" id="dark-mode-custom-link"/><link xmlns="" type="text/css" rel="stylesheet" id="dark-mode-general-link"/><style xmlns="" lang="en" type="text/css" id="dark-mode-custom-style"/><style xmlns="" lang="en" type="text/css" id="dark-mode-native-style"/><g><g><g><g><g><line x1="40.131999015808105" y1="174.61999893188477" x2="35.131999015808105" y2="174.61999893188477" style="visibility: inherit;" fill="rgb(0, 0, 0)" stroke="rgb(204, 204, 204)" stroke-width="1px"/><line x1="40.131999015808105" y1="157.1579990386963" x2="35.131999015808105" y2="157.1579990386963" style="visibility: inherit;" fill="rgb(0, 0, 0)" stroke="rgb(204, 204, 204)" stroke-width="1px"/><line x1="40.131999015808105" y1="139.6959991455078" x2="35.131999015808105" y2="139.6959991455078" style="visibility: inherit;" fill="rgb(0, 0, 0)" stroke="rgb(204, 204, 204)" stroke-width="1px"/><line x1="40.131999015808105" y1="122.23399925231932" x2="35.131999015808105" y2="122.23399925231932" style="visibility: inherit;" fill="rgb(0, 0, 0)" stroke="rgb(204, 204, 204)" stroke-width="1px"/><line x1="40.131999015808105" y1="104.77199935913086" x2="35.131999015808105" y2="104.77199935913086" style="visibility: inherit;" fill="rgb(0, 0, 0)" stroke="rgb(204, 204, 204)" stroke-width="1px"/><line x1="40.131999015808105" y1="87.30999946594238" x2="35.131999015808105" y2="87.30999946594238" style="visibility: inherit;" fill="rgb(0, 0, 0)" stroke="rgb(204, 204, 204)" stroke-width="1px"/><line x1="40.131999015808105" y1="69.8479995727539" x2="35.131999015808105" y2="69.8479995727539" style="visibility: inherit;" fill="rgb(0, 0, 0)" stroke="rgb(204, 204, 204)" stroke-width="1px"/><line x1="40.131999015808105" y1="52.38599967956544" x2="35.131999015808105" y2="52.38599967956544" style="visibility: inherit;" fill="rgb(0, 0, 0)" stroke="rgb(204, 204, 204)" stroke-width="1px"/><line x1="40.131999015808105" y1="34.923999786376946" x2="35.131999015808105" y2="34.923999786376946" style="visibility: inherit;" fill="rgb(0, 0, 0)" stroke="rgb(204, 204, 204)" stroke-width="1px"/><line x1="40.131999015808105" y1="17.461999893188473" x2="35.131999015808105" y2="17.461999893188473" style="visibility: inherit;" fill="rgb(0, 0, 0)" stroke="rgb(204, 204, 204)" stroke-width="1px"/><line x1="40.131999015808105" y1="0" x2="35.131999015808105" y2="0" style="visibility: inherit;" fill="rgb(0, 0, 0)" stroke="rgb(204, 204, 204)" stroke-width="1px"/></g><g transform="translate(30.131999015808105, 0)"><text style="text-anchor: end; visibility: hidden; font-family: Roboto, sans-serif; font-size: 12px; font-weight: 200;" x="0" y="174.61999893188477" dx="0em" dy="0.3em" fill="rgb(33, 33, 33)" stroke="none" stroke-width="1px">-50</text><text style="text-anchor: end; visibility: inherit; font-family: Roboto, sans-serif; font-size: 12px; font-weight: 200;" x="0" y="157.1579990386963" dx="0em" dy="0.3em" fill="rgb(33, 33, 33)" stroke="none" stroke-width="1px">0</text><text style="text-anchor: end; visibility: hidden; font-family: Roboto, sans-serif; font-size: 12px; font-weight: 200;" x="0" y="139.6959991455078" dx="0em" dy="0.3em" fill="rgb(33, 33, 33)" stroke="none" stroke-width="1px">50</text><text style="text-anchor: end; visibility: inherit; font-family: Roboto, sans-serif; font-size: 12px; font-weight: 200;" x="0" y="122.23399925231932" dx="0em" dy="0.3em" fill="rgb(33, 33, 33)" stroke="none" stroke-width="1px">100</text><text style="text-anchor: end; visibility: hidden; font-family: Roboto, sans-serif; font-size: 12px; font-weight: 200;" x="0" y="104.77199935913086" dx="0em" dy="0.3em" fill="rgb(33, 33, 33)" stroke="none" stroke-width="1px">150</text><text style="text-anchor: end; visibility: inherit; font-family: Roboto, sans-serif; font-size: 12px; font-weight: 200;" x="0" y="87.30999946594238" dx="0em" dy="0.3em" fill="rgb(33, 33, 33)" stroke="none" stroke-width="1px">200</text><text style="text-anchor: end; visibility: hidden; font-family: Roboto, sans-serif; font-size: 12px; font-weight: 200;" x="0" y="69.8479995727539" dx="0em" dy="0.3em" fill="rgb(33, 33, 33)" stroke="none" stroke-width="1px">250</text><text style="text-anchor: end; visibility: inherit; font-family: Roboto, sans-serif; font-size: 12px; font-weight: 200;" x="0" y="52.38599967956544" dx="0em" dy="0.3em" fill="rgb(33, 33, 33)" stroke="none" stroke-width="1px">300</text><text style="text-anchor: end; visibility: hidden; font-family: Roboto, sans-serif; font-size: 12px; font-weight: 200;" x="0" y="34.923999786376946" dx="0em" dy="0.3em" fill="rgb(33, 33, 33)" stroke="none" stroke-width="1px">350</text><text style="text-anchor: end; visibility: inherit; font-family: Roboto, sans-serif; font-size: 12px; font-weight: 200;" x="0" y="17.461999893188473" dx="0em" dy="0.3em" fill="rgb(33, 33, 33)" stroke="none" stroke-width="1px">400</text><text style="text-anchor: end; visibility: hidden; font-family: Roboto, sans-serif; font-size: 12px; font-weight: 200;" x="0" y="0" dx="0em" dy="0.3em" fill="rgb(33, 33, 33)" stroke="none" stroke-width="1px">450</text></g><line x1="40.131999015808105" y1="0" x2="40.131999015808105" y2="174.61999893188477" fill="rgb(0, 0, 0)" stroke="rgb(204, 204, 204)" stroke-width="1px"/></g></g><g transform="translate(40, 0)" clip-path="url(#clip_0)"><clipPath id="clip_0"><rect width="289" height="174"/></clipPath><g><g><g><line x1="0" y1="0" x2="0" y2="174.61999893188477" fill="rgb(0, 0, 0)" stroke="rgb(66, 66, 66)" stroke-width="1px" opacity="0.25"/><line x1="32.20755566491021" y1="0" x2="32.20755566491021" y2="174.61999893188477" fill="rgb(0, 0, 0)" stroke="rgb(66, 66, 66)" stroke-width="1px" opacity="0.25"/><line x1="64.41511132982042" y1="0" x2="64.41511132982042" y2="174.61999893188477" fill="rgb(0, 0, 0)" stroke="rgb(66, 66, 66)" stroke-width="1px" opacity="0.25"/><line x1="96.62266699473062" y1="0" x2="96.62266699473062" y2="174.61999893188477" fill="rgb(0, 0, 0)" stroke="rgb(66, 66, 66)" stroke-width="1px" opacity="0.25"/><line x1="128.83022265964084" y1="0" x2="128.83022265964084" y2="174.61999893188477" fill="rgb(0, 0, 0)" stroke="rgb(66, 66, 66)" stroke-width="1px" opacity="0.25"/><line x1="161.03777832455106" y1="0" x2="161.03777832455106" y2="174.61999893188477" fill="rgb(0, 0, 0)" stroke="rgb(66, 66, 66)" stroke-width="1px" opacity="0.25"/><line x1="193.24533398946124" y1="0" x2="193.24533398946124" y2="174.61999893188477" fill="rgb(0, 0, 0)" stroke="rgb(66, 66, 66)" stroke-width="1px" opacity="0.25"/><line x1="225.4528896543715" y1="0" x2="225.4528896543715" y2="174.61999893188477" fill="rgb(0, 0, 0)" stroke="rgb(66, 66, 66)" stroke-width="1px" opacity="0.25"/><line x1="257.6604453192817" y1="0" x2="257.6604453192817" y2="174.61999893188477" fill="rgb(0, 0, 0)" stroke="rgb(66, 66, 66)" stroke-width="1px" opacity="0.25"/><line x1="289.8680009841919" y1="0" x2="289.8680009841919" y2="174.61999893188477" fill="rgb(0, 0, 0)" stroke="rgb(66, 66, 66)" stroke-width="1px" opacity="0.25"/></g><g><line x1="0" y1="174.61999893188477" x2="289.8680009841919" y2="174.61999893188477" fill="rgb(0, 0, 0)" stroke="rgb(66, 66, 66)" stroke-width="1px" opacity="0.25"/><line x1="0" y1="157.1579990386963" x2="289.8680009841919" y2="157.1579990386963" fill="rgb(0, 0, 0)" stroke="rgb(66, 66, 66)" stroke-width="1px" opacity="0.25"/><line x1="0" y1="139.6959991455078" x2="289.8680009841919" y2="139.6959991455078" fill="rgb(0, 0, 0)" stroke="rgb(66, 66, 66)" stroke-width="1px" opacity="0.25"/><line x1="0" y1="122.23399925231932" x2="289.8680009841919" y2="122.23399925231932" fill="rgb(0, 0, 0)" stroke="rgb(66, 66, 66)" stroke-width="1px" opacity="0.25"/><line x1="0" y1="104.77199935913086" x2="289.8680009841919" y2="104.77199935913086" fill="rgb(0, 0, 0)" stroke="rgb(66, 66, 66)" stroke-width="1px" opacity="0.25"/><line x1="0" y1="87.30999946594238" x2="289.8680009841919" y2="87.30999946594238" fill="rgb(0, 0, 0)" stroke="rgb(66, 66, 66)" stroke-width="1px" opacity="0.25"/><line x1="0" y1="69.8479995727539" x2="289.8680009841919" y2="69.8479995727539" fill="rgb(0, 0, 0)" stroke="rgb(66, 66, 66)" stroke-width="1px" opacity="0.25"/><line x1="0" y1="52.38599967956544" x2="289.8680009841919" y2="52.38599967956544" fill="rgb(0, 0, 0)" stroke="rgb(66, 66, 66)" stroke-width="1px" opacity="0.25"/><line x1="0" y1="34.923999786376946" x2="289.8680009841919" y2="34.923999786376946" fill="rgb(0, 0, 0)" stroke="rgb(66, 66, 66)" stroke-width="1px" opacity="0.25"/><line x1="0" y1="17.461999893188473" x2="289.8680009841919" y2="17.461999893188473" fill="rgb(0, 0, 0)" stroke="rgb(66, 66, 66)" stroke-width="1px" opacity="0.25"/><line x1="0" y1="0" x2="289.8680009841919" y2="0" fill="rgb(0, 0, 0)" stroke="rgb(66, 66, 66)" stroke-width="1px" opacity="0.25"/></g></g></g><g><g><line x1="0" y1="157.1579990386963" x2="289.8680009841919" y2="157.1579990386963" fill="rgb(0, 0, 0)" stroke="rgb(153, 153, 153)" stroke-width="1.5px"/></g></g><g><g><line x1="32.20755566491021" y1="0" x2="32.20755566491021" y2="174.61999893188477" fill="rgb(0, 0, 0)" stroke="rgb(153, 153, 153)" stroke-width="1.5px"/></g></g><g><g><g><g><g><path style="fill: none;" stroke="rgb(204, 51, 17)" stroke-width="2px" d="M34.84599862497966,109.66135932922363L37.4844415850491,112.71720931053162L40.122884545118545,115.07814296955966L42.76132750518799,116.2802276710903L45.39977046525743,116.13599259982087L48.03821342532688,114.73818727883565L50.67665638539632,112.93640986095673L53.31509934546577,110.89359826207121L55.95354230553521,108.56114898529378L58.591985265604656,106.19299381120037L61.2304282256741,104.08027515869914L63.868871185743544,101.55755343988552L66.50731414581298,99.48792474938612L69.14575710588242,98.24787886219794L71.78420006595188,97.36471183045623L74.42264302602132,96.69534202756458L77.06108598609077,95.73496242564127L79.6995289461602,95.01912852546648L82.33797190622965,94.44997020405931L84.9764148662991,93.96879630180592L87.61485782636855,93.54040415617128L90.25330078643799,93.1436770454725L92.89174374650743,92.48655281389789L95.53018670657687,92.0922815962544L98.16862966664632,91.85572006132443L100.80707262671577,91.57408733335822L103.4455155867852,91.54480414616691L106.08395854685465,91.24784208316949L108.7224015069241,91.06966496208322L111.36084446699354,90.96275873144778L113.999287427063,90.758918990517L116.63773038713242,90.63661516326299L119.27617334720188,90.56323287314017L121.91461630727132,90.2398114950132L124.55305926734077,90.18545467561451L127.19150222741021,90.15284058457333L129.82994518747964,90.1332721301639L132.4683881475491,90.12153105759577L135.10683110761855,89.97479041462604L137.745274067688,89.88674602905346L140.38371702775743,89.83391939778522L143.02215998782688,89.94191941826409L145.6606029478963,90.00671943051819L148.29904590796576,89.90590343868895L150.93748886803522,89.70571784444257L153.57593182810467,89.58560648790807L156.2143747881741,89.51353967399214L158.85281774824355,89.47029958564433L161.49126070831298,89.44435553263622L164.12970366838243,89.28909310168497L166.76814662845186,89.19593564311502L169.4065895885213,89.14004116797334L172.04503254859077,89.10650448288844L174.68347550866022,89.2260784709832L177.32191846872965,89.29782286383995L179.9603614287991,89.20117350040844L182.59880438886856,89.14318388234955L185.237247348938,88.96869411236867L187.8756903090074,88.72430425123466L190.51413326907686,88.57767033455426L193.15257622914632,88.34999398540052L195.79101918921577,88.21338817590828L198.4294621492852,88.13142469021295L201.06790510935465,87.94255059965023L203.7063480694241,87.68953014616709L206.34479102949356,87.5377178740772L208.983233989563,87.44663051082328L211.62167694963242,87.39197809287093L214.26011990970187,87.35918664209952L216.89856286977133,87.33951177163667L219.53700582984075,87.32770684935895L222.1754487899102,87.18092789684681L224.81389174997966,87.09286052533952L227.45233471004912,87.04002010243515L230.09077767011854,87.00831584869255L232.729220630188,86.98929329644697L235.36766359025745,87.11757576424513L238.00610655032688,87.05484924577853L240.6445495103963,87.01721333469858L243.28299247046576,86.9946317880506L245.9214354305352,86.9810828600618L248.55987839060467,86.97295350326853L251.1983213506741,86.96807588919256L253.83676431074355,86.96514932074697L256.475207270813,86.96339337967963L259.11365023088246,86.96233981503923L261.7520931909519,86.96170767625497" fill="none"/></g><g><path style="fill: none;" stroke="rgb(0, 119, 187)" stroke-width="2px" d="M34.84599862497966,152.61787906646728L37.4844415850491,152.61787906646728L40.122884545118545,152.61787906646728L42.76132750518799,152.61787906646728L45.39977046525743,152.61787906646728L48.03821342532688,152.61787906646728L50.67665638539632,152.61787906646728L53.31509934546577,152.61787906646728L55.95354230553521,152.61787906646728L58.591985265604656,152.61787906646728L61.2304282256741,152.47767440895194L63.868871185743544,152.393877865978L66.50731414581298,152.3437168332382L69.14575710588242,152.31366217530285L71.78420006595188,152.29564446096438L74.42264302602132,152.2848392557529L77.06108598609077,152.1386384348326L79.6995289461602,152.0509337819147L82.33797190622965,151.99831669117103L84.9764148662991,151.96674848881503L87.61485782636855,151.94780830609506L90.25330078643799,151.93644446238008L92.89174374650743,151.78992914950274L95.53018670657687,151.7020207023083L98.16862966664632,151.64927590058036L100.80707262671577,151.61762911551497L103.4455155867852,151.5986410790253L106.08395854685465,151.5872482695693L108.7224015069241,151.58041258837332L111.36084446699354,151.57631118126767L113.999287427063,151.5738503375846L116.63773038713242,151.57237383158363L119.27617334720188,151.57148792805827L121.91461630727132,151.57095638597013L124.55305926734077,151.57063746072697L127.19150222741021,151.5704461055846L129.82994518747964,151.57033129250044L132.4683881475491,151.5702624046504L135.10683110761855,151.4305250724838L137.745274067688,151.3466826733831L140.38371702775743,151.29637723399438L143.02215998782688,151.26619397038698L145.6606029478963,151.24808401223183L148.29904590796576,151.2372180373421L150.93748886803522,151.23069845240946L153.57593182810467,151.22678670145032L156.2143747881741,151.22443965087498L158.85281774824355,151.22303142052982L161.49126070831298,151.2221864823228L164.12970366838243,151.22167951939852L166.76814662845186,151.221375341644L169.4065895885213,151.22119283499129L172.04503254859077,151.22108333099965L174.68347550866022,151.2210176286047L177.32191846872965,151.2209782071677L179.9603614287991,151.2209545543055L182.59880438886856,151.08124436344264L185.237247348938,150.99741824892493L187.8756903090074,150.94712258021434L190.51413326907686,150.916945178988L193.15257622914632,150.89883873825215L195.79101918921577,150.88797487381066L198.4294621492852,150.88145655514577L201.06790510935465,150.87754556394682L203.7063480694241,150.87519896922748L206.34479102949356,150.87379101239586L208.983233989563,150.8729462382969L211.62167694963242,150.8724393738375L214.26011990970187,150.87213525516188L216.89856286977133,150.87195278395652L219.53700582984075,150.87184330123327L222.1754487899102,150.87177761159936L224.81389174997966,150.87173819781898L227.45233471004912,150.87171454955075L230.09077767011854,150.87170036058984L232.729220630188,150.8716918472133" fill="none"/></g><g><path style="fill: none;" stroke="rgb(255, 112, 67)" stroke-width="2px" d="M34.84599862497966,19.208199882507323L37.4844415850491,25.756449842452998L40.122884545118545,29.008301863378406L42.76132750518799,32.04790568632239L45.39977046525743,35.71893885160467L48.03821342532688,37.5833910966406L50.67665638539632,38.50106763038736L53.31509934546577,39.46119899833388L55.95354230553521,40.02685177575715L58.591985265604656,41.62748537709326L61.2304282256741,43.70328605550371L63.868871185743544,44.24393239246907L66.50731414581298,45.26695946533635L69.14575710588242,46.578947689031956L71.78420006595188,47.924529163431586L74.42264302602132,50.128827224031426L77.06108598609077,51.17156870669019L79.6995289461602,52.77507194072331L82.33797190622965,54.575296722747794L84.9764148662991,56.353866916583726L87.61485782636855,58.119462733056906L90.25330078643799,59.31849327214224L92.89174374650743,59.339415983254646L95.53018670657687,59.3519695041725L98.16862966664632,59.08010878604095L100.80707262671577,58.77729661238214L103.4455155867852,58.59560963877422L106.08395854685465,57.92781323389239L108.7224015069241,57.52713565342094L111.36084446699354,57.00733713956542L113.999287427063,56.69545810479702L116.63773038713242,56.92741874120247" fill="none"/></g></g></g></g><g opacity="0.2"><g><g><g><path style="fill: none;" stroke="rgb(204, 51, 17)" stroke-width="2px" d="M34.84599862497966,109.66135932922363L37.4844415850491,114.55071929931641L40.122884545118545,117.34463928222655L42.76132750518799,117.69387928009031L45.39977046525743,115.94767929077148L48.03821342532688,112.80451930999756L50.67665638539632,110.35983932495117L53.31509934546577,107.91515933990479L55.95354230553521,105.12123935699462L58.591985265604656,102.67655937194826L61.2304282256741,100.9303593826294L63.868871185743544,97.78719940185547L66.50731414581298,96.3902394104004L69.14575710588242,96.3902394104004L71.78420006595188,96.04099941253664L74.42264302602132,95.69175941467286L77.06108598609077,94.29479942321778L79.6995289461602,93.945559425354L82.33797190622965,93.59631942749024L84.9764148662991,93.24707942962647L87.61485782636855,92.8978394317627L90.25330078643799,92.54859943389893L92.89174374650743,91.50087944030763L95.53018670657687,91.50087944030763L98.16862966664632,91.50087944030763L100.80707262671577,91.15163944244385L103.4455155867852,91.50087944030763L106.08395854685465,90.80239944458008L108.7224015069241,90.80239944458008L111.36084446699354,90.80239944458008L113.999287427063,90.45315944671631L116.63773038713242,90.45315944671631L119.27617334720188,90.45315944671631L121.91461630727132,89.75467945098877L124.55305926734077,90.10391944885254L127.19150222741021,90.10391944885254L129.82994518747964,90.10391944885254L132.4683881475491,90.10391944885254L135.10683110761855,89.75467945098877L137.745274067688,89.75467945098877L140.38371702775743,89.75467945098877L143.02215998782688,90.10391944885254L145.6606029478963,90.10391944885254L148.29904590796576,89.75467945098877L150.93748886803522,89.405439453125L153.57593182810467,89.405439453125L156.2143747881741,89.405439453125L158.85281774824355,89.405439453125L161.49126070831298,89.405439453125L164.12970366838243,89.05619945526124L166.76814662845186,89.05619945526124L169.4065895885213,89.05619945526124L172.04503254859077,89.05619945526124L174.68347550866022,89.405439453125L177.32191846872965,89.405439453125L179.9603614287991,89.05619945526124L182.59880438886856,89.05619945526124L185.237247348938,88.70695945739746L187.8756903090074,88.3577194595337L190.51413326907686,88.3577194595337L193.15257622914632,88.00847946166992L195.79101918921577,88.00847946166992L198.4294621492852,88.00847946166992L201.06790510935465,87.65923946380616L203.7063480694241,87.30999946594238L206.34479102949356,87.30999946594238L208.983233989563,87.30999946594238L211.62167694963242,87.30999946594238L214.26011990970187,87.30999946594238L216.89856286977133,87.30999946594238L219.53700582984075,87.30999946594238L222.1754487899102,86.9607594680786L224.81389174997966,86.9607594680786L227.45233471004912,86.9607594680786L230.09077767011854,86.9607594680786L232.729220630188,86.9607594680786L235.36766359025745,87.30999946594238L238.00610655032688,86.9607594680786L240.6445495103963,86.9607594680786L243.28299247046576,86.9607594680786L245.9214354305352,86.9607594680786L248.55987839060467,86.9607594680786L251.1983213506741,86.9607594680786L253.83676431074355,86.9607594680786L256.475207270813,86.9607594680786L259.11365023088246,86.9607594680786L261.7520931909519,86.9607594680786" fill="none"/></g><g><path style="fill: none;" stroke="rgb(0, 119, 187)" stroke-width="2px" d="M34.84599862497966,152.61787906646728L37.4844415850491,152.61787906646728L40.122884545118545,152.61787906646728L42.76132750518799,152.61787906646728L45.39977046525743,152.61787906646728L48.03821342532688,152.61787906646728L50.67665638539632,152.61787906646728L53.31509934546577,152.61787906646728L55.95354230553521,152.61787906646728L58.591985265604656,152.61787906646728L61.2304282256741,152.2686390686035L63.868871185743544,152.2686390686035L66.50731414581298,152.2686390686035L69.14575710588242,152.2686390686035L71.78420006595188,152.2686390686035L74.42264302602132,152.2686390686035L77.06108598609077,151.91939907073976L79.6995289461602,151.91939907073976L82.33797190622965,151.91939907073976L84.9764148662991,151.91939907073976L87.61485782636855,151.91939907073976L90.25330078643799,151.91939907073976L92.89174374650743,151.57015907287598L95.53018670657687,151.57015907287598L98.16862966664632,151.57015907287598L100.80707262671577,151.57015907287598L103.4455155867852,151.57015907287598L106.08395854685465,151.57015907287598L108.7224015069241,151.57015907287598L111.36084446699354,151.57015907287598L113.999287427063,151.57015907287598L116.63773038713242,151.57015907287598L119.27617334720188,151.57015907287598L121.91461630727132,151.57015907287598L124.55305926734077,151.57015907287598L127.19150222741021,151.57015907287598L129.82994518747964,151.57015907287598L132.4683881475491,151.57015907287598L135.10683110761855,151.2209190750122L137.745274067688,151.2209190750122L140.38371702775743,151.2209190750122L143.02215998782688,151.2209190750122L145.6606029478963,151.2209190750122L148.29904590796576,151.2209190750122L150.93748886803522,151.2209190750122L153.57593182810467,151.2209190750122L156.2143747881741,151.2209190750122L158.85281774824355,151.2209190750122L161.49126070831298,151.2209190750122L164.12970366838243,151.2209190750122L166.76814662845186,151.2209190750122L169.4065895885213,151.2209190750122L172.04503254859077,151.2209190750122L174.68347550866022,151.2209190750122L177.32191846872965,151.2209190750122L179.9603614287991,151.2209190750122L182.59880438886856,150.87167907714843L185.237247348938,150.87167907714843L187.8756903090074,150.87167907714843L190.51413326907686,150.87167907714843L193.15257622914632,150.87167907714843L195.79101918921577,150.87167907714843L198.4294621492852,150.87167907714843L201.06790510935465,150.87167907714843L203.7063480694241,150.87167907714843L206.34479102949356,150.87167907714843L208.983233989563,150.87167907714843L211.62167694963242,150.87167907714843L214.26011990970187,150.87167907714843L216.89856286977133,150.87167907714843L219.53700582984075,150.87167907714843L222.1754487899102,150.87167907714843L224.81389174997966,150.87167907714843L227.45233471004912,150.87167907714843L230.09077767011854,150.87167907714843L232.729220630188,150.87167907714843" fill="none"/></g><g><path style="fill: none;" stroke="rgb(255, 112, 67)" stroke-width="2px" d="M34.84599862497966,19.208199882507323L37.4844415850491,29.685399818420418L40.122884545118545,32.130079803466806L42.76132750518799,35.622479782104485L45.39977046525743,40.51183975219726L48.03821342532688,40.16259975433349L50.67665638539632,39.81335975646972L53.31509934546577,40.86107975006103L55.95354230553521,40.86107975006103L58.591985265604656,44.00423973083496L61.2304282256741,46.79815971374512L63.868871185743544,45.05195972442627L66.50731414581298,46.79815971374512L69.14575710588242,48.54435970306397L71.78420006595188,49.94131969451905L74.42264302602132,53.433719673156745L77.06108598609077,52.735239677429206L79.6995289461602,55.17991966247558L82.33797190622965,57.2753596496582L84.9764148662991,59.021559638977045L87.61485782636855,60.76775962829589L90.25330078643799,61.11699962615966L92.89174374650743,59.370799636840815L95.53018670657687,59.370799636840815L98.16862966664632,58.672319641113276L100.80707262671577,58.32307964324951L103.4455155867852,58.32307964324951L106.08395854685465,56.92611965179442L108.7224015069241,56.92611965179442L111.36084446699354,56.227639656066884L113.999287427063,56.227639656066884L116.63773038713242,57.2753596496582" fill="none"/></g></g></g></g></g></g><g transform="translate(40, 174)" clip-path="url(#clip_1)"><clipPath id="clip_1"><rect width="289" height="25"/></clipPath><g><g><line x1="0" y1="0" x2="0" y2="5" style="visibility: inherit;" fill="rgb(0, 0, 0)" stroke="rgb(204, 204, 204)" stroke-width="1px"/><line x1="32.20755566491021" y1="0" x2="32.20755566491021" y2="5" style="visibility: inherit;" fill="rgb(0, 0, 0)" stroke="rgb(204, 204, 204)" stroke-width="1px"/><line x1="64.41511132982042" y1="0" x2="64.41511132982042" y2="5" style="visibility: inherit;" fill="rgb(0, 0, 0)" stroke="rgb(204, 204, 204)" stroke-width="1px"/><line x1="96.62266699473062" y1="0" x2="96.62266699473062" y2="5" style="visibility: inherit;" fill="rgb(0, 0, 0)" stroke="rgb(204, 204, 204)" stroke-width="1px"/><line x1="128.83022265964084" y1="0" x2="128.83022265964084" y2="5" style="visibility: inherit;" fill="rgb(0, 0, 0)" stroke="rgb(204, 204, 204)" stroke-width="1px"/><line x1="161.03777832455106" y1="0" x2="161.03777832455106" y2="5" style="visibility: inherit;" fill="rgb(0, 0, 0)" stroke="rgb(204, 204, 204)" stroke-width="1px"/><line x1="193.24533398946124" y1="0" x2="193.24533398946124" y2="5" style="visibility: inherit;" fill="rgb(0, 0, 0)" stroke="rgb(204, 204, 204)" stroke-width="1px"/><line x1="225.4528896543715" y1="0" x2="225.4528896543715" y2="5" style="visibility: inherit;" fill="rgb(0, 0, 0)" stroke="rgb(204, 204, 204)" stroke-width="1px"/><line x1="257.6604453192817" y1="0" x2="257.6604453192817" y2="5" style="visibility: inherit;" fill="rgb(0, 0, 0)" stroke="rgb(204, 204, 204)" stroke-width="1px"/><line x1="289.8680009841919" y1="0" x2="289.8680009841919" y2="5" style="visibility: inherit;" fill="rgb(0, 0, 0)" stroke="rgb(204, 204, 204)" stroke-width="1px"/></g><g transform="translate(0, 8)"><text style="text-anchor: middle; visibility: hidden; font-family: Roboto, sans-serif; font-size: 12px; font-weight: 200;" x="0" y="0" dx="0em" dy="0.95em" fill="rgb(33, 33, 33)" stroke="none" stroke-width="1px">-100k</text><text style="text-anchor: middle; visibility: inherit; font-family: Roboto, sans-serif; font-size: 12px; font-weight: 200;" x="32.20755566491021" y="0" dx="0em" dy="0.95em" fill="rgb(33, 33, 33)" stroke="none" stroke-width="1px">0</text><text style="text-anchor: middle; visibility: hidden; font-family: Roboto, sans-serif; font-size: 12px; font-weight: 200;" x="64.41511132982042" y="0" dx="0em" dy="0.95em" fill="rgb(33, 33, 33)" stroke="none" stroke-width="1px">100k</text><text style="text-anchor: middle; visibility: inherit; font-family: Roboto, sans-serif; font-size: 12px; font-weight: 200;" x="96.62266699473062" y="0" dx="0em" dy="0.95em" fill="rgb(33, 33, 33)" stroke="none" stroke-width="1px">200k</text><text style="text-anchor: middle; visibility: hidden; font-family: Roboto, sans-serif; font-size: 12px; font-weight: 200;" x="128.83022265964084" y="0" dx="0em" dy="0.95em" fill="rgb(33, 33, 33)" stroke="none" stroke-width="1px">300k</text><text style="text-anchor: middle; visibility: inherit; font-family: Roboto, sans-serif; font-size: 12px; font-weight: 200;" x="161.03777832455106" y="0" dx="0em" dy="0.95em" fill="rgb(33, 33, 33)" stroke="none" stroke-width="1px">400k</text><text style="text-anchor: middle; visibility: hidden; font-family: Roboto, sans-serif; font-size: 12px; font-weight: 200;" x="193.24533398946124" y="0" dx="0em" dy="0.95em" fill="rgb(33, 33, 33)" stroke="none" stroke-width="1px">500k</text><text style="text-anchor: middle; visibility: inherit; font-family: Roboto, sans-serif; font-size: 12px; font-weight: 200;" x="225.4528896543715" y="0" dx="0em" dy="0.95em" fill="rgb(33, 33, 33)" stroke="none" stroke-width="1px">600k</text><text style="text-anchor: middle; visibility: hidden; font-family: Roboto, sans-serif; font-size: 12px; font-weight: 200;" x="257.6604453192817" y="0" dx="0em" dy="0.95em" fill="rgb(33, 33, 33)" stroke="none" stroke-width="1px">700k</text><text style="text-anchor: middle; visibility: hidden; font-family: Roboto, sans-serif; font-size: 12px; font-weight: 200;" x="289.8680009841919" y="0" dx="0em" dy="0.95em" fill="rgb(33, 33, 33)" stroke="none" stroke-width="1px">800k</text></g><line x1="0" y1="0" x2="289.8680009841919" y2="0" fill="rgb(0, 0, 0)" stroke="rgb(204, 204, 204)" stroke-width="1px"/></g></g></g></g></svg>